<svg xmlns="http://www.w3.org/2000/svg" width="481.769" height="83.826" viewBox="0 0 481.769 83.826">
  <g id="组_13855" data-name="组 13855" transform="translate(-110 -6444)">
    <g id="组_2015" data-name="组 2015" transform="translate(110 6444)">
      <path id="路径_25657" data-name="路径 25657" d="M126.928,538.424a1.757,1.757,0,0,0-.132-.178.483.483,0,0,0-.082-.1.666.666,0,0,0-.128-.1.915.915,0,0,0-.16-.093.653.653,0,0,0-.263-.067.73.73,0,0,0-.342,0,.71.71,0,0,0-.294.107.614.614,0,0,0-.159.107,1.175,1.175,0,0,0-.162.154.708.708,0,0,0-.128.227,1.17,1.17,0,0,0-.081.312,1.018,1.018,0,0,0,.023.322,1.292,1.292,0,0,0,.094.232.616.616,0,0,0,.112.175.874.874,0,0,0,.144.139,1.118,1.118,0,0,0,.193.126.567.567,0,0,0,.233.077,1.178,1.178,0,0,0,.242.027,1.534,1.534,0,0,0,.288-.053.952.952,0,0,0,.315-.162,1.36,1.36,0,0,0,.21-.224,1.231,1.231,0,0,0,.124-.258.556.556,0,0,0,.055-.288c-.01-.091-.013-.188-.027-.267S126.957,538.492,126.928,538.424Z" transform="translate(-108.801 -473.334)" fill="#fff"/>
      <path id="路径_25658" data-name="路径 25658" d="M165.127,538.444a.855.855,0,0,0-.219-.276.655.655,0,0,0-.262-.16,2.388,2.388,0,0,0-.269-.077.738.738,0,0,0-.291.008,1.5,1.5,0,0,0-.259.083,1.42,1.42,0,0,0-.2.119c-.059.055-.108.1-.16.153a.925.925,0,0,1-.072.108c-.026.042-.049.1-.074.142-.018.063-.044.117-.063.183a1.105,1.105,0,0,0-.012.263.846.846,0,0,0,.071.357,1.875,1.875,0,0,0,.157.257c.055.055.11.1.137.134.057.036.125.081.192.121a.851.851,0,0,0,.244.083,1.279,1.279,0,0,0,.32.01.792.792,0,0,0,.313-.084,1.148,1.148,0,0,0,.2-.13.714.714,0,0,0,.164-.155,1.453,1.453,0,0,0,.106-.164c.023-.057.048-.132.079-.217a.931.931,0,0,0,.034-.245,1.371,1.371,0,0,0-.028-.231A.871.871,0,0,0,165.127,538.444Z" transform="translate(-97.734 -473.318)" fill="#fff"/>
      <path id="路径_25659" data-name="路径 25659" d="M154.348,487.815a41.913,41.913,0,1,0,41.908,41.917A41.911,41.911,0,0,0,154.348,487.815Zm28.522,70.431a40.319,40.319,0,1,1,11.818-28.513A40.212,40.212,0,0,1,182.871,558.246Z" transform="translate(-112.435 -487.815)" fill="#fff"/>
      <path id="路径_25660" data-name="路径 25660" d="M153.8,489.71a39.468,39.468,0,1,0,39.461,39.474A39.469,39.469,0,0,0,153.8,489.71Zm27.345,66.814a38.663,38.663,0,1,1,11.329-27.34A38.561,38.561,0,0,1,181.145,556.524Z" transform="translate(-111.886 -487.267)" fill="#fff"/>
      <path id="路径_25661" data-name="路径 25661" d="M148.422,507.135c-.121-.022-.129.175-.043.254.445.409.4,1.421.872,1.744a2.953,2.953,0,0,0,.8.3c.077,0,.227.063.187-.3a1.715,1.715,0,0,0-.474-1.071A3.109,3.109,0,0,0,148.422,507.135Z" transform="translate(-102.052 -482.226)" fill="#fff"/>
      <path id="路径_25662" data-name="路径 25662" d="M158.38,505.965c-.135-.045-.272-.114-.373-.144a1.867,1.867,0,0,0-.623.121,4.236,4.236,0,0,0-.469.067,2.063,2.063,0,0,1,0-.226,12.043,12.043,0,0,1,.387-1.714,1.465,1.465,0,0,0-.019-1.062.648.648,0,0,0-.533-.334,1.7,1.7,0,0,0-.984.378.47.47,0,0,0-.184.2c-.111.123-.054.161.125.123.141-.034.34-.15.517-.206a.585.585,0,0,1,.246-.027.365.365,0,0,1,.187.143,1.243,1.243,0,0,1,.126.547c.015.157.036.3-.11.348-.267.086-.337.021-.522.066-.037,0-.267.146-.37.139-.061-.013-.075-.184-.175-.34a.215.215,0,0,0-.182-.088,3.357,3.357,0,0,1,.117-.451c.025-.107-.044-.1-.044-.1a4.133,4.133,0,0,0-.418.391.265.265,0,0,1-.16.035,1.613,1.613,0,0,1,0-.413c.032-.308.094-.674.094-.674s.153-.106.315-.208l.342-.193c.128-.123.393-.075.536-.138s.092-.262.13-.406a.245.245,0,0,0-.309-.13c-.307.1-.618.437-.759.4-.054-.019-.068-.236-.131-.358-.061-.093-.169-.093-.254-.132a1,1,0,0,1-.151.054,13.9,13.9,0,0,0-.113,2.4c0,.061.1.213.148.213a.542.542,0,0,0,.153.021.9.9,0,0,1,.248.062,2.62,2.62,0,0,1,.1.688,2.041,2.041,0,0,1-.281.713s-.178.041-.19-.12c-.028-.166-.009-.513-.031-.7-.027-.1,0-.364-.027-.463-.024-.062-.07-.031-.08-.012a4.091,4.091,0,0,0-.077.762c-.019.268-.045.494-.045.494.009.168.045.6.061.674l-.218.089-.19-.023c-.137-1.129-.173-2.12-.327-3.1h-.124l-.215.213c-.035.1-.115.838-.115.838-.023.365.224,1.386.25,1.707-.009,0,0,.449,0,.449l-.086.028h-.1l-.2-.081a7.939,7.939,0,0,0-.29-2c-.044-.084-.26-.419-.4-.471-.067-.027-.141.2-.141.2.027.228.1.306.141.556.068.592.135,1.248.179,1.781.013.072.081.106.094.181a3.032,3.032,0,0,1,.475.092c.121.039.2.117.321.13a.862.862,0,0,0,.291-.067l.148-.187a1.538,1.538,0,0,1,.57-.064.375.375,0,0,0,.3.153c.088-.021.162-.195.335-.3a.9.9,0,0,1,.388-.092,1.885,1.885,0,0,1,.436.121,2.658,2.658,0,0,0,.458.052c.233,0,.224-.151.309-.2a1.377,1.377,0,0,1,.633-.12c.982-.066-1.677,1.47-.79,1.324a1.923,1.923,0,0,0,.713-.29,3.749,3.749,0,0,0,.607-.366c.085-.048.284-.073.4-.142a2.441,2.441,0,0,1,.107-.231c.058-.119.155-.251.179-.318C158.75,506.009,158.571,506.037,158.38,505.965Zm-1.943-.132c-.008.108.008.233-.1.26l-.214.03a1.241,1.241,0,0,1-.416-.025.246.246,0,0,1-.209-.233c-.04-.156.084-.4.133-.664.04-.142,0-.275.04-.442l.064-.089h.112l.084.089c.071.224-.046.517.041.747.077.166.209.041.413.1C156.437,505.591,156.514,505.721,156.437,505.833Zm.2-.754c-.026.088-.026.2-.049.2-.121.046-.206.088-.238.016a.747.747,0,0,1,.021-.345,1.157,1.157,0,0,1,0-.211.36.36,0,0,1,.122-.2,2.28,2.28,0,0,1,.231-.051.855.855,0,0,1,.072.169C156.8,504.776,156.666,504.94,156.64,505.079Z" transform="translate(-100.856 -483.831)" fill="#fff"/>
      <path id="路径_25663" data-name="路径 25663" d="M157.244,508.759a.413.413,0,0,0-.41-.129,2.852,2.852,0,0,1-.664.045.661.661,0,0,1-.263-.045.653.653,0,0,0-.239-.608.427.427,0,0,0-.248-.012.339.339,0,0,1-.179-.017l-.006-.169a5.1,5.1,0,0,1,.665-.886c-.013,0,.248-.151.269-.182.121-.1.03-.262,0-.4a3.12,3.12,0,0,1-.566-.022,1.737,1.737,0,0,0-.514-.072c-.19.048-.358.342-.623.452a.145.145,0,0,0-.052.035c-.152.121-.264.217-.264.217a.135.135,0,0,0,.147.157c.169,0,.482-.115.7-.143a.339.339,0,0,1,.235.052,5.954,5.954,0,0,1-.311.616c-.088.129-.175.165-.193.3-.017.112.142.232.2.377a.846.846,0,0,1,.1.307l-.093.031c-.178.054-.432.017-.638.084a1.138,1.138,0,0,0-.776.672,1.208,1.208,0,0,0,.028.638,1.1,1.1,0,0,0,.3.493,1.15,1.15,0,0,0,.378.125,1.44,1.44,0,0,0,.543,0c.618-.169.97-.834,1.153-1.6,0,0,.19-.01.316-.01a1.8,1.8,0,0,1,.753.121c.174.034.351.276.633.276a.434.434,0,0,0,0-.276C157.578,509.055,157.318,508.894,157.244,508.759Zm-2.606,1.679a.546.546,0,0,1-.656-.168c-.291-.349-.228-.576-.228-.576a.614.614,0,0,1,.384-.467,1.346,1.346,0,0,1,.611-.161c.155-.01.411-.061.486.1A1.226,1.226,0,0,1,154.639,510.437Z" transform="translate(-100.557 -482.481)" fill="#fff"/>
      <path id="路径_25664" data-name="路径 25664" d="M138.931,506.413a3.2,3.2,0,0,0-.277-.379c-.081-.138-.2-.03-.206-.061-.04,1.092-.637,1.926.121,2.59.008.013.227.286.227.286.242.072.21-.094.21-.094s.063-.245.063-.26A6.124,6.124,0,0,1,138.931,506.413Z" transform="translate(-104.984 -482.565)" fill="#fff"/>
      <path id="路径_25665" data-name="路径 25665" d="M152,505.5c-.066-.058-.181.14-.181.14-.089.671-.556,1.141-.612,1.457-.072.514.3.433.276.411.414-.325,1.029-.629.772-1.61A1.082,1.082,0,0,0,152,505.5Z" transform="translate(-101.221 -482.701)" fill="#fff"/>
      <path id="路径_25666" data-name="路径 25666" d="M145.546,505.681c.006-.045-.055-.08-.108-.155-.04-.048-.031-.1-.054-.129a.29.29,0,0,0-.233-.019c-.179.019-.041.3.208.331C145.447,505.712,145.529,505.736,145.546,505.681Z" transform="translate(-102.993 -482.738)" fill="#fff"/>
      <path id="路径_25667" data-name="路径 25667" d="M137.479,504.742a19.677,19.677,0,0,1-2.234.42v-.427a1.722,1.722,0,0,0,.592-.327.523.523,0,0,0-.061-.355c-.058-.108-.257-.1-.278-.2a8.579,8.579,0,0,1-.089-1.405c-.124-.392-.575-.418-.767-.458-.514-.086-.7.237-.549.6a1.456,1.456,0,0,0,.182.329l.022,1.024s-.075.018-.383.085a2.585,2.585,0,0,0-.78.23.336.336,0,0,0,.026.276c.058.11.258.16.281.166a4.63,4.63,0,0,0,.863.064v.565a13.629,13.629,0,0,0-1.83.331c-.037.572,1.823.291,1.823.291v.572s-1.038.248-1.5.318a5.356,5.356,0,0,0-.71-.34c-.342-.034-.3.155-.3.155a17.49,17.49,0,0,1,.593,1.649,1.049,1.049,0,0,0,.5.072,5.134,5.134,0,0,0,.725-.182c.382-.065.668-.092.668-.092v.5a4.129,4.129,0,0,0-.536.455,8.546,8.546,0,0,1-1.582,1.511c-.075.054-.273.219-.217.286a2.558,2.558,0,0,0,.578-.07,2.979,2.979,0,0,0,.771-.486c.294-.231.7-.843.994-1.056l.021.507c-.039.848.037,1.306-.021,1.327-.108.1-.419.021-.994.021l-.03.186a6.974,6.974,0,0,0,.844.469l.138.226a.534.534,0,0,0,.614-.151c.04-.329-.07-2.82,0-2.929.113-.206.391-.648.407-.67a3.453,3.453,0,0,1,.575-.4c.147-.081.575-.606.9-.877.462-.389.91-.7,1.374-1.035.026-.016.063-.084.1-.1a2.1,2.1,0,0,0,.017-.26,2.048,2.048,0,0,1-.161-.443A.483.483,0,0,0,137.479,504.742Zm-3.158,2.98-.6.106a3.927,3.927,0,0,1-.66.1s-.11-.349-.119-.411c0-.124-.059-.236.068-.327a1.434,1.434,0,0,1,.683-.141c.3-.014.628-.045.628-.045Zm1.572-.589c-.294.157-.85.4-.794.294l.012-.576a3.82,3.82,0,0,0,.688-.1c0-.032.108-.147.074-.282-.036-.12-.174-.181-.155-.181a1.776,1.776,0,0,0-.655.057s-.019-.462-.019-.547a5.082,5.082,0,0,1,1.26-.3c.241,0,.7-.041.723.075C137.1,505.91,136.026,507.066,135.893,507.132Z" transform="translate(-106.835 -483.717)" fill="#fff"/>
      <path id="路径_25668" data-name="路径 25668" d="M144.9,505.979a1.594,1.594,0,0,0-.124-.34.691.691,0,0,0-.521-.107,4.89,4.89,0,0,0-.6.128c-.422.064-.855.108-1.122.137a7.918,7.918,0,0,0-.82.094c-.083.03-.28.119-.28.119l-.146.141v.2a1.194,1.194,0,0,1,.152.539c-.059.155-.463.424-.567.557-.019.032-.119.273-.132.284a1.442,1.442,0,0,1-.427.057.446.446,0,0,1,.046-.263c.227-.218.651-.727.57-.744a4.121,4.121,0,0,0-.467.246s-.416.14-.423.148c.014-.019-.072-.053-.045-.13a6.549,6.549,0,0,0,.424-.717c.307-.767.609-1.823.641-1.844a9.459,9.459,0,0,0,1.456-.476c0-.015.125-.142.125-.236s-.133-.153-.12-.153c-.262.075-.4.153-.607.218a5.174,5.174,0,0,1-.735.1,3.654,3.654,0,0,1,.014-.511.48.48,0,0,0,.094-.247,1.048,1.048,0,0,0-.52-.312c-.1-.016-.2.137-.2.137-.021.121.041.628.034.934-.014.013-.159.1-.159.1a7.794,7.794,0,0,1-1.044-.012s-.215.035-.223.092c-.01.09.148.338.148.338.125.027.409.048.547.063a5.174,5.174,0,0,0,.637,0,4.211,4.211,0,0,1-1.3,2.647c.085.114.413.286.468.357.179.3-.031.473.09.766l.281.13a5.22,5.22,0,0,1,.821-.329l.021.494c-.24.12-.734.392-.734.392s-.169.041-.313.092a2.211,2.211,0,0,1-.222.053s.112.164.112.177l.371-.013.765-.124s0,.478-.015.661c-.031.231-.085.458-.125.673.013,0-.227.2-.308.316-.132.2-.05.222-.05.222a.161.161,0,0,0,.1.053,1.635,1.635,0,0,0,.379-.077c.11-.04.141-.2.326-.294.034-.219.138-.566.191-.935a7.849,7.849,0,0,0,.094-.877s.358-.175.575-.275c.084-.085.26-.217-.037-.3-.179-.04-.289.019-.562.086v-.6c.275-.126.4-.157.607-.268a1.575,1.575,0,0,0,.222-.107s-.071-.122-.156-.11c-.218.014-.5.2-.82.251v-.275c.073-.219.551-.424.728-.582a1.913,1.913,0,0,1-.019-.485,15.39,15.39,0,0,1,1.826-.124,1.82,1.82,0,0,1,.273.035c.064,0,.133.116.133.116a6.25,6.25,0,0,1-.022,1.172,8.067,8.067,0,0,1-.663,1.977.366.366,0,0,1-.2.159c-.33,0-.6-.014-.924-.014-.066,0-.16.112-.16.112a7.975,7.975,0,0,1,.692.694c.231.189.153.063.316.349,0-.008.253-.028.253-.028a.562.562,0,0,0,.358-.29c.129-.21.8-1.926.89-2.258.054-.224.009-.451.076-.645s.237-.38.237-.576c0-.1-.15-.146-.15-.259C144.926,506.478,144.926,506.186,144.9,505.979Z" transform="translate(-104.699 -483.461)" fill="#fff"/>
      <path id="路径_25669" data-name="路径 25669" d="M150.58,505.185c-.153.1-.275.365-.436.453a2.556,2.556,0,0,1-.875.3c-.191.03-.4.111-.576.155a3.687,3.687,0,0,1-.455.081.162.162,0,0,1-.125-.138c-.052-.852-.041-2.169-.041-3.13,0,0-.067-.07-.09-.1a.459.459,0,0,0-.251-.089c-.053,0-.076.186-.076.186s-.049,1.347-.083,1.775c-.058.663-.085,1.516-.085,1.516a.156.156,0,0,1-.111.055c-.217.013-.7-.023-1.184-.018-.129,0-.23.043-.356.043-.057,0-.13.1-.13.1a1.854,1.854,0,0,0,.574.465,6.024,6.024,0,0,0,.946.291.891.891,0,0,1,0,.192,4.315,4.315,0,0,1-.618,1.623,3.876,3.876,0,0,1-1.3.959l-.061.146.049.152c.07,0,.358-.028.433-.028.988,0,1.323,0,1.646-.655a9.6,9.6,0,0,0,.464-2.366c.186-.054.382-.037.588-.085.544-.137.99-.365,1.626-.535l.384-.16a4.691,4.691,0,0,0,.536-.068.329.329,0,0,0,.174-.28,2.016,2.016,0,0,0-.155-.48C150.942,505.468,150.816,505.1,150.58,505.185Z" transform="translate(-102.942 -483.504)" fill="#fff"/>
      <path id="路径_25670" data-name="路径 25670" d="M136.572,508.149l-1.555-.4-.117.025-.006.159.175.15.413.208.509.221.233.216.09.359.113.3.25.163.185-.042.079-.264.063-.159.179-.132.05-.287-.185-.327Z" transform="translate(-105.937 -482.048)" fill="#fff"/>
      <path id="路径_25671" data-name="路径 25671" d="M124.643,531.637a.482.482,0,0,1-.179-.19,1.03,1.03,0,0,1-.05-.357,3.715,3.715,0,0,0-.048-.659,3.245,3.245,0,0,0-.155-.523,2.167,2.167,0,0,0-1.071-1.15,1.681,1.681,0,0,0-1.4-.037,1.59,1.59,0,0,0-.812.733,4.286,4.286,0,0,0-.344,1.663,8.153,8.153,0,0,1-.1,1.069,1.4,1.4,0,0,1-.215.53.625.625,0,0,1-.284.223.733.733,0,0,1-.6-.023,1.028,1.028,0,0,1-.5-.567,1.6,1.6,0,0,1-.006-1.167,2.091,2.091,0,0,1,.855-1.047l-.067-.165-1.806.812.052.117a.733.733,0,0,1,.351-.022.271.271,0,0,1,.142.137,1.162,1.162,0,0,1,.028.438,2.935,2.935,0,0,0,.019.542,2.381,2.381,0,0,0,.156.544,1.856,1.856,0,0,0,.967,1.025,1.618,1.618,0,0,0,1.322.018,1.427,1.427,0,0,0,.624-.472,2.133,2.133,0,0,0,.366-.741,7.918,7.918,0,0,0,.166-1.332,4.859,4.859,0,0,1,.111-.919,1.352,1.352,0,0,1,.214-.463.756.756,0,0,1,.326-.25.787.787,0,0,1,.683.021,1.152,1.152,0,0,1,.551.624,1.772,1.772,0,0,1,.008,1.293,2.542,2.542,0,0,1-1.035,1.248l.066.142,2.058-.872-.058-.139A.776.776,0,0,1,124.643,531.637Z" transform="translate(-110.866 -476.019)" fill="#fff"/>
      <path id="路径_25672" data-name="路径 25672" d="M120.164,528.8a3.126,3.126,0,0,0,1.87-1.035,2.99,2.99,0,0,0,.628-2.624,2.927,2.927,0,0,0-1.548-2.213,3.079,3.079,0,0,0-2.062-.289,2.933,2.933,0,0,0-2,1.242,3.007,3.007,0,0,0-.409,2.41,2.848,2.848,0,0,0,1.2,2.011A2.973,2.973,0,0,0,120.164,528.8Zm-2.218-1.549a1.343,1.343,0,0,1-.936-1.871,1.778,1.778,0,0,1,.707-.695,5.406,5.406,0,0,1,1.686-.52,4.835,4.835,0,0,1,1.609-.072,1.8,1.8,0,0,1,.98.432,1.236,1.236,0,0,1,.344.7,1.182,1.182,0,0,1-.315,1.1,3.738,3.738,0,0,1-2.1.918A4.507,4.507,0,0,1,117.946,527.254Z" transform="translate(-111.243 -477.757)" fill="#fff"/>
      <path id="路径_25673" data-name="路径 25673" d="M117.242,521.459l2.891.182a2.361,2.361,0,0,0,1.187-.152,1.74,1.74,0,0,0,.763-.761,2.788,2.788,0,0,0,.28-1.164,2.457,2.457,0,0,0-.3-1.482,1.674,1.674,0,0,0-.8-.718,6.092,6.092,0,0,0-1.494-.228l-2.249-.144a1.393,1.393,0,0,1-.486-.083.53.53,0,0,1-.291-.263.838.838,0,0,1-.077-.42l.01-.119-.156-.012-.126,2.041.157.019a1.133,1.133,0,0,1,.134-.544.505.505,0,0,1,.244-.19,1.561,1.561,0,0,1,.575-.044l2.407.153a3.718,3.718,0,0,1,1.307.246,1.334,1.334,0,0,1,.565.539,1.414,1.414,0,0,1,.162.827,1.2,1.2,0,0,1-.213.676.969.969,0,0,1-.449.356,3.019,3.019,0,0,1-1.06.054l-2.891-.183a2.39,2.39,0,0,1-.631-.093.454.454,0,0,1-.183-.195,1,1,0,0,1-.041-.476l.01-.155-.159-.005-.192,3.042.152.005a1.229,1.229,0,0,1,.1-.508.445.445,0,0,1,.206-.187A2.107,2.107,0,0,1,117.242,521.459Z" transform="translate(-111.364 -479.633)" fill="#fff"/>
      <path id="路径_25674" data-name="路径 25674" d="M118.422,515.485a1.62,1.62,0,0,1-.828-.746,1.239,1.239,0,0,1,.01-.912l.129-.427,4.364,1.307a2.117,2.117,0,0,1,.529.213.451.451,0,0,1,.147.229.785.785,0,0,1-.031.424l-.055.186.15.043.887-2.95-.152-.04-.049.182a.837.837,0,0,1-.2.356.526.526,0,0,1-.246.124,2.139,2.139,0,0,1-.562-.111l-4.376-1.318.128-.427a1.366,1.366,0,0,1,.246-.531,1.159,1.159,0,0,1,.5-.34,2.459,2.459,0,0,1,.852-.064l.044-.152-1.534-.463-1.542,5.107,1.542.464Z" transform="translate(-111.162 -481.377)" fill="#fff"/>
      <path id="路径_25675" data-name="路径 25675" d="M119.082,509.238a.66.66,0,0,1,.271-.292.447.447,0,0,1,.269-.068,1.892,1.892,0,0,1,.517.246l3.361,1.962a1.438,1.438,0,0,1,.455.327.42.42,0,0,1,.1.253.791.791,0,0,1-.128.4l-.1.174.134.075,1.552-2.66-.135-.076-.1.168a.748.748,0,0,1-.264.3.532.532,0,0,1-.278.072,2.714,2.714,0,0,1-.516-.249l-1.582-.921,1.057-1.822,1.583.924a1.862,1.862,0,0,1,.454.32.471.471,0,0,1,.094.26.819.819,0,0,1-.126.411l-.1.16.134.074,1.55-2.653-.134-.083-.1.17a.83.83,0,0,1-.263.3.4.4,0,0,1-.275.064,1.8,1.8,0,0,1-.522-.24l-3.359-1.962a1.936,1.936,0,0,1-.455-.325.393.393,0,0,1-.092-.264.821.821,0,0,1,.124-.4l.1-.161-.132-.083-1.556,2.661.138.073.1-.159a.741.741,0,0,1,.272-.3.449.449,0,0,1,.271-.063,2.092,2.092,0,0,1,.517.242l1.448.846-1.055,1.822-1.453-.848a1.651,1.651,0,0,1-.451-.324.374.374,0,0,1-.1-.251.863.863,0,0,1,.125-.411l.1-.16-.135-.077-1.555,2.651.138.084Z" transform="translate(-110.58 -483.239)" fill="#fff"/>
      <path id="路径_25676" data-name="路径 25676" d="M122.942,502.8a.684.684,0,0,1,.4-.235.436.436,0,0,1,.278.048,2.42,2.42,0,0,1,.376.325l2.809,2.691a1.835,1.835,0,0,1,.369.418.425.425,0,0,1,.036.269.793.793,0,0,1-.218.364l-.137.142.113.113,3.525-3.687-1.173-1.5-.116.125a2.108,2.108,0,0,1,.349,1.318,2.072,2.072,0,0,1-.639,1.221l-.246.259a.641.641,0,0,1-.3.213.317.317,0,0,1-.238-.014,2.106,2.106,0,0,1-.462-.384l-1.2-1.149a1.3,1.3,0,0,1,.529-.385.966.966,0,0,1,.578.006,2.837,2.837,0,0,1,.758.416l.1-.115-2.245-2.14-.111.1a2.235,2.235,0,0,1,.532.971.938.938,0,0,1-.311.836l-.08.08-1.732-1.658.416-.442a3.718,3.718,0,0,1,.692-.609,1.329,1.329,0,0,1,.74-.188,2.074,2.074,0,0,1,.91.38l.111-.117-1.265-1.207-3.413,3.571.121.1Z" transform="translate(-109.469 -484.5)" fill="#fff"/>
      <path id="路径_25677" data-name="路径 25677" d="M130.039,502.368a.9.9,0,0,1-.282.514l.083.128,1.636-1.07-.084-.138a1.588,1.588,0,0,1-.539.229.407.407,0,0,1-.369-.2,1.313,1.313,0,0,1-.165-.472l-.108-.629,1.728-1.124.672.445c.175.117.275.192.3.209a.548.548,0,0,1,.108.125.236.236,0,0,1,.032.22.9.9,0,0,1-.347.348l-.1.063.081.135,2.392-1.576-.086-.129a.659.659,0,0,1-.447.093,3.138,3.138,0,0,1-.892-.454l-4.438-2.895-.071.05.825,5.09A3.385,3.385,0,0,1,130.039,502.368Zm1.591-2.963-1.47.97L129.8,498.2Z" transform="translate(-107.602 -485.392)" fill="#fff"/>
      <path id="路径_25678" data-name="路径 25678" d="M134.077,496.514a2.061,2.061,0,0,0,.731.387,6.847,6.847,0,0,0,1.328.206,6.706,6.706,0,0,1,.906.146,1.14,1.14,0,0,1,.453.231.773.773,0,0,1,.2,1.017,1.115,1.115,0,0,1-.637.531,1.8,1.8,0,0,1-1.293-.032,2.578,2.578,0,0,1-1.211-1.073l-.143.054.8,2.082.15-.052a.552.552,0,0,1,.092-.325.469.469,0,0,1,.2-.174,1.118,1.118,0,0,1,.355-.048,3.661,3.661,0,0,0,.663-.022,2.092,2.092,0,0,0,.514-.147,2.028,2.028,0,0,0,1.193-1.022,1.68,1.68,0,0,0,.088-1.4,1.6,1.6,0,0,0-.705-.83,4.1,4.1,0,0,0-1.658-.4,9.428,9.428,0,0,1-1.068-.141,1.474,1.474,0,0,1-.522-.231.662.662,0,0,1-.21-.294.734.734,0,0,1,.046-.607,1.028,1.028,0,0,1,.572-.475,1.64,1.64,0,0,1,1.172.034,1.984,1.984,0,0,1,1.011.9l.179-.07-.754-1.824-.111.036a.989.989,0,0,1,0,.36.286.286,0,0,1-.15.132,1.1,1.1,0,0,1-.44.01c-.206,0-.392,0-.538,0a2.141,2.141,0,0,0-.54.143,1.814,1.814,0,0,0-1.065.942,1.6,1.6,0,0,0-.053,1.309A1.442,1.442,0,0,0,134.077,496.514Z" transform="translate(-106.337 -486.332)" fill="#fff"/>
      <path id="路径_25679" data-name="路径 25679" d="M138.68,494.049a1.676,1.676,0,0,1,.321-1.064,1.252,1.252,0,0,1,.819-.393l.436-.073.735,4.5a1.6,1.6,0,0,1,.04.56.391.391,0,0,1-.141.239.914.914,0,0,1-.391.164l-.192.03.03.156,3.036-.5-.031-.156-.186.035a.879.879,0,0,1-.406-.019.572.572,0,0,1-.223-.173,2.028,2.028,0,0,1-.137-.557l-.728-4.506.433-.071a1.579,1.579,0,0,1,.592-.012,1.2,1.2,0,0,1,.522.3,2.968,2.968,0,0,1,.433.743l.152-.03-.259-1.576-5.264.846.254,1.585Z" transform="translate(-104.96 -486.705)" fill="#fff"/>
      <path id="路径_25680" data-name="路径 25680" d="M148.131,492.161a2.068,2.068,0,0,1-.05.636l-.49,2.856a2.47,2.47,0,0,0,.041,1.194,1.684,1.684,0,0,0,.672.843,2.618,2.618,0,0,0,1.136.4,2.366,2.366,0,0,0,1.481-.138,1.7,1.7,0,0,0,.808-.725,5.942,5.942,0,0,0,.391-1.465l.378-2.219a1.389,1.389,0,0,1,.134-.483.552.552,0,0,1,.29-.249.888.888,0,0,1,.423-.043l.111.026.032-.155-2.014-.343-.027.155a1.313,1.313,0,0,1,.514.188.47.47,0,0,1,.162.276,1.3,1.3,0,0,1-.01.566l-.4,2.379a3.632,3.632,0,0,1-.4,1.279,1.332,1.332,0,0,1-.585.5,1.518,1.518,0,0,1-.841.071,1.2,1.2,0,0,1-.647-.28,1.043,1.043,0,0,1-.317-.486,3.214,3.214,0,0,1,.063-1.061l.487-2.858a1.707,1.707,0,0,1,.16-.611.354.354,0,0,1,.208-.165,1.193,1.193,0,0,1,.481.008l.147.022.03-.146-3-.521-.032.156a1.249,1.249,0,0,1,.5.157A.45.45,0,0,1,148.131,492.161Z" transform="translate(-102.299 -486.715)" fill="#fff"/>
      <path id="路径_25681" data-name="路径 25681" d="M151.982,498.348l1.943.806.061-.144-.129-.063a.836.836,0,0,1-.429-.366.772.772,0,0,1,.044-.716l1.463-3.5,1.8,6.1.148.061,1.891-4.548a1.434,1.434,0,0,1,.293-.513.462.462,0,0,1,.282-.165,1.43,1.43,0,0,1,.513.084l.055-.159-1.809-.748-.058.144a.85.85,0,0,1,.552.5,1.2,1.2,0,0,1-.133.735l-.971,2.316-1.3-4.482-1.939-.816-.061.142a1.081,1.081,0,0,1,.353.241,1.414,1.414,0,0,1,.183.428l.055.2-1.609,3.854a.96.96,0,0,1-.423.539,1.011,1.011,0,0,1-.713-.08Z" transform="translate(-100.993 -486.352)" fill="#fff"/>
      <path id="路径_25682" data-name="路径 25682" d="M160.612,496.078a.489.489,0,0,1,.057.268,2.169,2.169,0,0,1-.271.513l-2.116,3.259a1.706,1.706,0,0,1-.349.44.337.337,0,0,1-.259.083.767.767,0,0,1-.4-.143l-.157-.107-.09.13,2.579,1.671.085-.129-.157-.107a.725.725,0,0,1-.286-.284.463.463,0,0,1-.045-.269,1.612,1.612,0,0,1,.262-.511l2.116-3.264a1.669,1.669,0,0,1,.346-.442.48.48,0,0,1,.262-.088.852.852,0,0,1,.4.152l.166.106.081-.13-2.58-1.674-.086.125.161.113A.712.712,0,0,1,160.612,496.078Z" transform="translate(-99.533 -485.577)" fill="#fff"/>
      <path id="路径_25683" data-name="路径 25683" d="M161.294,504.167l.112.107,4.577-1.908a4.852,4.852,0,0,1,1.095-.374.88.88,0,0,1,.659.147l.11-.125-1.408-1.315-.11.117a1.18,1.18,0,0,1,.309.388.356.356,0,0,1,.041.248.46.46,0,0,1-.1.222,1.177,1.177,0,0,1-.227.17c-.1.058-.3.151-.628.3l-2.642,1.109,1.1-3c.125-.322.192-.525.224-.589a.758.758,0,0,1,.1-.161.216.216,0,0,1,.2-.075.954.954,0,0,1,.454.293l.075.063.1-.119-2.066-1.93-.1.111a.7.7,0,0,1,.208.466,5.329,5.329,0,0,1-.318,1.059Z" transform="translate(-98.299 -484.947)" fill="#fff"/>
      <path id="路径_25684" data-name="路径 25684" d="M168.157,503.586l-3.21,2.2a1.9,1.9,0,0,1-.49.275.4.4,0,0,1-.268-.027.7.7,0,0,1-.311-.289l-.112-.161-.128.094,2.874,4.2,1.71-.842-.1-.13a2.08,2.08,0,0,1-1.36.071,2.147,2.147,0,0,1-1.07-.883l-.2-.293a.654.654,0,0,1-.15-.339.346.346,0,0,1,.059-.235,2.6,2.6,0,0,1,.474-.37l1.38-.937a1.54,1.54,0,0,1,.271.591.971.971,0,0,1-.135.572,2.562,2.562,0,0,1-.563.654l.086.128,2.564-1.755-.092-.128a2.179,2.179,0,0,1-1.044.32.953.953,0,0,1-.754-.465l-.062-.108,1.982-1.355.34.5a3.512,3.512,0,0,1,.454.8,1.33,1.33,0,0,1,.03.77,2.12,2.12,0,0,1-.552.812l.089.132,1.436-.986-2.786-4.079-.128.1.108.165a.754.754,0,0,1,.162.436.429.429,0,0,1-.115.266A3.1,3.1,0,0,1,168.157,503.586Z" transform="translate(-97.621 -483.617)" fill="#fff"/>
      <path id="路径_25685" data-name="路径 25685" d="M171.292,508.555,167.71,510a1.98,1.98,0,0,1-.583.166.475.475,0,0,1-.258-.119,1.287,1.287,0,0,1-.281-.491l-.144.054,1.141,2.833.15-.063a1.507,1.507,0,0,1-.15-.547.434.434,0,0,1,.106-.263,1.675,1.675,0,0,1,.538-.281l1.548-.627.151.365-1.8,2.784.695,1.712.142-.061a.752.752,0,0,1-.017-.436,3.493,3.493,0,0,1,.315-.552l1.327-2.055a1.885,1.885,0,0,0,.69.616,1.43,1.43,0,0,0,1.181.039,1.528,1.528,0,0,0,.754-.642,1.663,1.663,0,0,0,.2-.963,6.16,6.16,0,0,0-.447-1.514l-1.028-2.546-.146.054a1.348,1.348,0,0,1,.135.544.408.408,0,0,1-.094.26A1.766,1.766,0,0,1,171.292,508.555Zm1.168,1.028.174.429a1.391,1.391,0,0,1,.086,1.082,1.344,1.344,0,0,1-.794.659,1.39,1.39,0,0,1-.766.119.882.882,0,0,1-.544-.3,2.808,2.808,0,0,1-.434-.811l-.1-.231Z" transform="translate(-96.809 -482.147)" fill="#fff"/>
      <path id="路径_25686" data-name="路径 25686" d="M172,514.172a2.1,2.1,0,0,0-.518.65,7.078,7.078,0,0,0-.459,1.261,4.936,4.936,0,0,1-.307.877,1.409,1.409,0,0,1-.3.395.88.88,0,0,1-.376.182.846.846,0,0,1-.669-.182,1.077,1.077,0,0,1-.4-.719,1.691,1.691,0,0,1,.275-1.258,2.514,2.514,0,0,1,1.278-1l-.032-.161-2.189.4.027.159a.627.627,0,0,1,.3.156.437.437,0,0,1,.128.222,1.008,1.008,0,0,1-.026.356,4.035,4.035,0,0,0-.1.659,2.3,2.3,0,0,0,.037.529,2.179,2.179,0,0,0,.785,1.368,1.7,1.7,0,0,0,1.36.346,1.61,1.61,0,0,0,.952-.544,4.2,4.2,0,0,0,.7-1.546c.159-.53.269-.869.331-1.026a1.466,1.466,0,0,1,.331-.464.694.694,0,0,1,.331-.155.742.742,0,0,1,.584.155,1,1,0,0,1,.356.656,1.563,1.563,0,0,1-.249,1.146,2.066,2.066,0,0,1-1.066.826l.039.186,1.928-.4-.019-.129a.628.628,0,0,1-.342-.062.192.192,0,0,1-.106-.16,1.142,1.142,0,0,1,.064-.438,3.431,3.431,0,0,0,.1-.526,2.567,2.567,0,0,0-.034-.571,1.881,1.881,0,0,0-.726-1.213,1.685,1.685,0,0,0-1.276-.309A1.6,1.6,0,0,0,172,514.172Z" transform="translate(-96.273 -480.291)" fill="#fff"/>
      <path id="路径_25687" data-name="路径 25687" d="M174.8,518.645a.772.772,0,0,1-.075.394.448.448,0,0,1-.2.2,2.028,2.028,0,0,1-.575.059l-3.886.1a1.7,1.7,0,0,1-.556-.045.4.4,0,0,1-.217-.161.776.776,0,0,1-.1-.414l-.006-.192h-.159l.073,3.08h.16l-.005-.2a.765.765,0,0,1,.076-.388.366.366,0,0,1,.195-.2,1.8,1.8,0,0,1,.575-.063l3.885-.086a1.775,1.775,0,0,1,.557.03.417.417,0,0,1,.215.179.8.8,0,0,1,.1.4l.006.192h.159l-.074-3.08-.159.006Z" transform="translate(-96.061 -478.952)" fill="#fff"/>
      <path id="路径_25688" data-name="路径 25688" d="M173.493,522.513a1.662,1.662,0,0,1,.924.629,1.246,1.246,0,0,1,.129.9l-.079.44-4.51-.677a1.9,1.9,0,0,1-.543-.125.4.4,0,0,1-.178-.208.749.749,0,0,1-.031-.416l.026-.2-.151-.023-.454,3.048.15.026.035-.2a.847.847,0,0,1,.137-.371.451.451,0,0,1,.227-.163,1.915,1.915,0,0,1,.572.034l4.516.683-.064.426a1.63,1.63,0,0,1-.164.574,1.232,1.232,0,0,1-.453.4,2.553,2.553,0,0,1-.832.192l-.026.15,1.59.237.79-5.27-1.583-.244Z" transform="translate(-96.177 -477.821)" fill="#fff"/>
      <path id="路径_25689" data-name="路径 25689" d="M173.812,528.835a3.69,3.69,0,0,1-1.041.227l-2.865.389-1.1-.433a1.593,1.593,0,0,1-.5-.244.389.389,0,0,1-.132-.239.642.642,0,0,1,.063-.407l.11-.3-.152-.05-1.182,3.085.142.052.124-.3a.733.733,0,0,1,.21-.324.439.439,0,0,1,.257-.1,1.662,1.662,0,0,1,.548.162l1.329.513,1.551,1.971a4.482,4.482,0,0,1,.688,1,.848.848,0,0,1,0,.484l.143.055.651-1.689-.151-.048a.989.989,0,0,1-.317.454.216.216,0,0,1-.228.039,2.607,2.607,0,0,1-.673-.681L170,530.8l2.2-.3a2.853,2.853,0,0,1,.878-.036.254.254,0,0,1,.11.155.7.7,0,0,1-.058.358l-.048.125.15.058,1.013-2.638-.151-.063A.692.692,0,0,1,173.812,528.835Z" transform="translate(-96.646 -476.253)" fill="#fff"/>
      <path id="路径_25690" data-name="路径 25690" d="M124.391,527.253a2.979,2.979,0,0,0,.5-.241,2.8,2.8,0,0,0,.449-.324V529.7h.473V525.83h-.307a1.7,1.7,0,0,1-.422.516,3.13,3.13,0,0,1-.694.458Z" transform="translate(-108.976 -476.816)" fill="#fff"/>
      <path id="路径_25691" data-name="路径 25691" d="M127.362,528.392a1.058,1.058,0,0,0,.527-.142,1.1,1.1,0,0,0,.389-.365c0,.044.005.075.005.1a2.1,2.1,0,0,1-.076.575,1.481,1.481,0,0,1-.173.449.725.725,0,0,1-.271.263.688.688,0,0,1-.375.1.627.627,0,0,1-.425-.143.785.785,0,0,1-.22-.461l-.453.036a1.063,1.063,0,0,0,.351.706,1.052,1.052,0,0,0,.735.257,1.158,1.158,0,0,0,.736-.24,1.3,1.3,0,0,0,.483-.654,3.608,3.608,0,0,0,.159-1.179,2.772,2.772,0,0,0-.166-1.088,1.337,1.337,0,0,0-.468-.572,1.25,1.25,0,0,0-.691-.205,1.168,1.168,0,0,0-.857.358,1.288,1.288,0,0,0-.348.943,1.259,1.259,0,0,0,.33.915A1.07,1.07,0,0,0,127.362,528.392Zm-.419-1.915a.729.729,0,0,1,.551-.25.67.67,0,0,1,.518.235.946.946,0,0,1,.217.643.935.935,0,0,1-.211.641.708.708,0,0,1-.54.23.749.749,0,0,1-.551-.23.824.824,0,0,1-.218-.6A.935.935,0,0,1,126.943,526.477Z" transform="translate(-108.445 -476.816)" fill="#fff"/>
      <path id="路径_25692" data-name="路径 25692" d="M129.587,529.767a1.056,1.056,0,0,0,.7-.229,1.293,1.293,0,0,0,.416-.643,3.422,3.422,0,0,0,.142-1.095,3.8,3.8,0,0,0-.086-.911,1.846,1.846,0,0,0-.239-.57,1.012,1.012,0,0,0-.389-.361,1.148,1.148,0,0,0-.543-.128,1.084,1.084,0,0,0-.695.231,1.219,1.219,0,0,0-.411.638,3.29,3.29,0,0,0-.15,1.1,2.553,2.553,0,0,0,.383,1.563A1.055,1.055,0,0,0,129.587,529.767Zm-.526-3.27a.625.625,0,0,1,.526-.271.657.657,0,0,1,.551.308,3.69,3.69,0,0,1,0,2.527.657.657,0,0,1-.551.311.65.65,0,0,1-.545-.308,2.416,2.416,0,0,1-.223-1.265A2.453,2.453,0,0,1,129.061,526.5Z" transform="translate(-107.836 -476.816)" fill="#fff"/>
      <path id="路径_25693" data-name="路径 25693" d="M132.942,529.247H131.06a1.144,1.144,0,0,1,.192-.259c.079-.085.262-.244.545-.481a9.743,9.743,0,0,0,.736-.683,1.788,1.788,0,0,0,.311-.467,1.082,1.082,0,0,0,.089-.456,1.006,1.006,0,0,0-.318-.766,1.258,1.258,0,0,0-.879-.3,1.319,1.319,0,0,0-.878.285,1.248,1.248,0,0,0-.369.834l.483.046a.787.787,0,0,1,.206-.571.755.755,0,0,1,.545-.2.729.729,0,0,1,.522.184.659.659,0,0,1,.21.477.936.936,0,0,1-.23.567,5.091,5.091,0,0,1-.844.821,4.362,4.362,0,0,0-.616.578,1.742,1.742,0,0,0-.313.514.892.892,0,0,0-.055.326h2.545Z" transform="translate(-107.238 -476.816)" fill="#fff"/>
      <path id="路径_25694" data-name="路径 25694" d="M161.975,526.128c-.642.028-1,.035-1.075.035h-.888l.005-.143,0-.16.025-.361a2.025,2.025,0,0,1-.248.024c-.021,0-.1-.013-.237-.024l.008.4v.129c0,.032,0,.073,0,.131h-.824c-.093,0-.441-.006-1.062-.035,0,.119.006.195.012.237v.091c-.005.027-.008.077-.012.143.437-.027.806-.035,1.069-.035h.817l-.014.45h-1.124c-.119,0-.29-.005-.527-.028l.024.233v2.637c-.005.073-.012.186-.024.334a2.107,2.107,0,0,1,.446,0l-.031-.334c0-.037-.006-.162-.006-.362v-2.145h2.844v2.2a.291.291,0,0,1-.026.142c-.017.036-.064.049-.147.044a2.938,2.938,0,0,1-.525-.088,1.547,1.547,0,0,1,.2.308,1.28,1.28,0,0,1,.05.163c.006.052.008.1.01.157.324-.066.52-.1.607-.134a.308.308,0,0,0,.195-.133.429.429,0,0,0,.067-.257V527.5c0-.041,0-.108.009-.2s.01-.2.015-.315a4.772,4.772,0,0,1-.486.028h-1.142l.018-.45h.9c.269,0,.629.008,1.075.035-.013-.139-.017-.215-.017-.241a.3.3,0,0,1,0-.084A1.069,1.069,0,0,1,161.975,526.128Z" transform="translate(-99.345 -476.912)" fill="#fff"/>
      <path id="路径_25695" data-name="路径 25695" d="M159.768,528.737h.422c.22,0,.449.009.681.031-.019-.116-.027-.182-.027-.2a.348.348,0,0,1,.008-.079.471.471,0,0,1,.019-.115c-.224.014-.445.022-.674.022h-.428v-.375h.456c.155,0,.309,0,.469.018-.01-.1-.021-.162-.022-.175s0-.036,0-.059a.391.391,0,0,0,.021-.108c-.164.016-.318.019-.469.019H160.1c.079-.141.155-.258.209-.347l.138-.206a1.249,1.249,0,0,1-.388-.187l-.066.173a1.494,1.494,0,0,1-.1.221,1.887,1.887,0,0,1-.177.347h-.507a1.811,1.811,0,0,1,.264-.066l-.365-.668a1.215,1.215,0,0,1-.4.166l.108.132a.725.725,0,0,1,.133.2,1.368,1.368,0,0,1,.066.138l.021.1h-.1c-.15,0-.318,0-.5-.019.005.094.014.152.014.164a.471.471,0,0,0-.009.066c0,.021,0,.063-.005.113.182-.014.346-.018.5-.018h.451l.008.375h-.483c-.223,0-.44-.008-.656-.022l.021.115v.143a.7.7,0,0,1-.021.133,6.488,6.488,0,0,1,.656-.031h.476v.388c0,.1,0,.186-.005.246s-.01.147-.018.258l.142-.009h.066l.222.009-.022-.246v-.646Z" transform="translate(-99.179 -476.484)" fill="#fff"/>
      <path id="路径_25696" data-name="路径 25696" d="M163.724,528.276l.115.094a4.9,4.9,0,0,1,.835.73l.072.081c.124-.112.249-.233.392-.351l-1.064-.808A1.8,1.8,0,0,1,163.724,528.276Z" transform="translate(-97.596 -476.182)" fill="#fff"/>
      <path id="路径_25697" data-name="路径 25697" d="M162.608,527.962l-.089.1a3.669,3.669,0,0,1-.972.808l-.088.052.219.157a1.169,1.169,0,0,1,.128.139l.072-.052c.035-.039.135-.11.291-.239s.288-.25.419-.371.213-.206.257-.244l.133-.088A2.958,2.958,0,0,1,162.608,527.962Z" transform="translate(-98.251 -476.199)" fill="#fff"/>
      <path id="路径_25698" data-name="路径 25698" d="M164.776,528.115c.1.009.2.013.308.013l-.021-.144a2.109,2.109,0,0,1-.013-.251v-.678a.808.808,0,0,1,.013-.155c0-.055.009-.152.021-.267-.205.017-.386.027-.526.027h-2c-.126,0-.312-.01-.566-.027l.021.195c0,.147.01.211.01.227v.678c0,.039-.006.1-.01.171s-.013.146-.021.224c.324-.018.511-.024.575-.024h.781v1.034a.481.481,0,0,1-.052.248c-.026.073-.161.086-.392.057l-.108-.014.107.191a2,2,0,0,1,.1.281,3.038,3.038,0,0,0,.576-.116.347.347,0,0,0,.165-.125.42.42,0,0,0,.041-.217V528.1h.783C164.609,528.1,164.678,528.109,164.776,528.115Zm-2.318-.348v-.705h2.21v.705Z" transform="translate(-98.096 -476.584)" fill="#fff"/>
      <path id="路径_25699" data-name="路径 25699" d="M165.928,526.128c-.349.026-.571.037-.664.037h-1.28l-.164-.615a2.279,2.279,0,0,1-.533.053l.184.406c0,.016.021.065.045.156h-1.411c-.088,0-.3-.012-.645-.037.009.146.014.236.014.255s0,.044,0,.081-.008.086-.014.139c.334-.024.551-.041.645-.041h3.158c.093,0,.315.017.664.041a2.022,2.022,0,0,1-.024-.221c0-.019,0-.052.006-.093A.9.9,0,0,1,165.928,526.128Z" transform="translate(-98.25 -476.897)" fill="#fff"/>
      <path id="路径_25700" data-name="路径 25700" d="M136.75,544.156c.031-.086.031-.1-.031-.155.013-.048.019-.017.006-.058a.094.094,0,0,1,.013-.023c-.039-.024-.08-.044-.111-.067V543.8a.848.848,0,0,0-.324-.16c-.072-.016-.085-.016-.135.039a.2.2,0,0,0-.119.144l.021.014c-.021.04-.035.072-.057.115a.343.343,0,0,0,.032.041.961.961,0,0,0-.151.213c.005.006.015.01.017.015a1.447,1.447,0,0,0-.115.106c0,.007.006.007.019.013-.019.032-.044.075-.063.114.013.006.015.006.022.013a.147.147,0,0,1-.03.042c.064.05.119.107.18.157a.082.082,0,0,1-.014.055c.071.045.134.1.2.138,0,0,.01-.028.057,0-.012.014-.006.015-.012.023.067.028.124.057.184.083a.6.6,0,0,0,.088-.043c.1-.006.161.058.246-.031a.244.244,0,0,1,.05.031c.05-.048.031-.04.076-.048.2-.327,0-.409,0-.673A.143.143,0,0,0,136.75,544.156Z" transform="translate(-105.691 -471.666)" fill="#fff"/>
      <path id="路径_25701" data-name="路径 25701" d="M134.06,543.427c-.021-.04,0-.012-.04-.052-.028.021-.048.012-.062.027s-.017.025-.032.04h-.093a.31.31,0,0,1-.053.094l-.014-.014c-.01.014-.018.034-.03.05,0-.008-.018-.017-.027-.017a.49.49,0,0,0-.089.271.8.8,0,0,0-.05.092,1.964,1.964,0,0,0,.166.328.058.058,0,0,1-.017.018c.03.022.061.041.09.059-.01.047-.01.013,0,.059-.006,0-.006.012-.006.018.017.014.044.025.061.037,0,.024,0,.04,0,.054.021.054.052.035.064.1.108.076.161.13.236.049a.828.828,0,0,0,.108.031c.021-.035.052-.065.081-.1.01.008.013.019.017.019.014-.034-.006-.067.034-.1.006,0,.013.007.027.01,0-.014.01-.025.017-.046.01,0,.025.017.025.022.006-.024.024-.032.024-.044h.023c.014-.025.03-.043.04-.062a.039.039,0,0,0,.026.008c.015-.031.041-.065.059-.107h.061a1.426,1.426,0,0,1,.092-.111c.067.015.067,0,.125,0a1.787,1.787,0,0,1,.1-.235c-.039-.041-.027-.008-.035-.045a.5.5,0,0,0-.205-.063.586.586,0,0,1-.086.042c-.018-.009-.045-.026-.063-.037l-.01.024a.089.089,0,0,0-.048-.024s0,.019-.013.019a1.648,1.648,0,0,1-.186-.083c-.01.009-.014.014-.014.026a.184.184,0,0,0-.073-.033s0,.005-.008.017a1.443,1.443,0,0,1-.117-.1.1.1,0,0,1,0-.048c-.034-.021-.061-.04-.092-.057a.738.738,0,0,1,.044-.066C134.091,543.467,134.077,543.442,134.06,543.427Z" transform="translate(-106.32 -471.74)" fill="#fff"/>
      <path id="路径_25702" data-name="路径 25702" d="M135.967,546.57a.234.234,0,0,1-.071-.075c0-.014.009-.018.013-.023a.387.387,0,0,1-.067-.042.6.6,0,0,0-.006-.092.52.52,0,0,1-.121-.1l.013-.026a.3.3,0,0,1-.044-.018c0-.026,0-.05.005-.059-.028-.006-.032-.018-.046-.03l.006-.021c-.037-.066-.151-.089-.173-.153-.2-.13-.255-.122-.395-.028a.11.11,0,0,1-.045-.027c-.035.036-.061.07-.09.1a.159.159,0,0,0-.138-.023c0,.009-.006.018-.006.023-.041-.014-.086-.028-.128-.044,0,.01,0,.01-.012.022-.034-.012-.073-.015-.106-.026-.005.01,0,.014-.006.019a1.1,1.1,0,0,1-.155-.09c-.008.008-.014.018-.022.025a.154.154,0,0,0-.039-.025c0,.008-.017.016-.017.019a1.148,1.148,0,0,1-.108-.063.026.026,0,0,0-.01.023,1.531,1.531,0,0,1-.213-.125.241.241,0,0,1-.062.026c-.064-.026-.128-.066-.2-.1-.018.006-.035.01-.044.014a2.793,2.793,0,0,1-.291-.155c-.008.009-.017.013-.017.022-.044-.03-.085-.053-.132-.084a.041.041,0,0,1-.01.027.366.366,0,0,1-.062-.035c-.006.005-.019.008-.019.026-.077-.045-.147-.089-.227-.137,0,.009,0,.023-.009.023-.059-.023-.11-.047-.164-.063-.013.006-.013.017-.015.027a.567.567,0,0,0-.068-.045.075.075,0,0,0,0,.025c-.031-.01-.052-.032-.071-.037,0,.005-.01.013-.018.023-.052-.028-.1-.063-.155-.092-.005,0-.005.005-.013.025a.165.165,0,0,0-.048-.031c0,.012,0,.012-.013.031a.736.736,0,0,1-.315-.159.623.623,0,0,1,.135-.247.559.559,0,0,1,.1-.005c.006-.019.006-.037.027-.049,0,.008.009.008.017.018a1.346,1.346,0,0,1,.115-.2l.019.006c.022-.036.049-.075.072-.112a.015.015,0,0,0,.017.018.344.344,0,0,0,.023-.05c.01.007.019.009.019.019.018-.026.026-.05.045-.075.013,0,.035,0,.054,0a.336.336,0,0,1,.027-.048s.006.021.018.021a.318.318,0,0,0,.028-.05.022.022,0,0,0,.021.015.626.626,0,0,0,.1-.116.192.192,0,0,0,.054,0,.688.688,0,0,0,.086-.1l.022.013c.044-.059-.008-.073,0-.086a.463.463,0,0,1,.044-.1.207.207,0,0,1-.044-.026.571.571,0,0,0,.112-.355.084.084,0,0,0,.028-.031c-.014-.018-.019-.034-.032-.053a.429.429,0,0,0,.013-.075c-.031-.044-.077-.09-.1-.124a.191.191,0,0,0,.006-.057,1.185,1.185,0,0,1-.139-.116v-.022a.345.345,0,0,0-.093-.046.241.241,0,0,0,.014-.064.308.308,0,0,0-.16-.085.223.223,0,0,1-.064.057l-.012-.012c-.085.111-.119.168-.034.246-.052.12-.1.238-.141.362.008,0,.012.009.017.016-.055.059-.134.113-.191.18-.081.122-.168.257-.255.387a.052.052,0,0,1,.028.013c-.01.007-.019.012-.022.019s-.006-.008-.018-.013c-.062.07-.072.116-.146.153h-.058c-.05.072-.108.152-.161.228-.009-.008-.017,0-.026-.008a.62.62,0,0,1-.066.11h-.085a.107.107,0,0,1-.03.048c-.005-.005-.005-.008-.021-.008a.762.762,0,0,1-.05.08h-.062a.424.424,0,0,0-.133.187c.01.018.022.03.037.054a1.379,1.379,0,0,0-.058.143c.005.008.009.008.021.013a.317.317,0,0,0-.021.1.065.065,0,0,0,.022.044c-.008.021-.017.037-.022.049s.009,0,.021.018a.356.356,0,0,1-.015.068,1.6,1.6,0,0,0,.254.177c.006,0,.009,0,.015-.018.037.018.068.044.11.063.012-.013.043-.032.063-.049.071-.021.146-.031.23-.047a1.378,1.378,0,0,0,.155.082c.037-.014.075-.032.12-.048.05.016.092.037.142.049a.388.388,0,0,1,.05-.021.657.657,0,0,0,.112.054l.017-.014a.207.207,0,0,1,.064.036c.005-.014.005-.022.013-.026.054.026.111.043.165.07,0,0,.012-.013.021-.027a.665.665,0,0,0,.11.066c-.005-.005,0-.017,0-.021.039.015.073.021.1.032a.037.037,0,0,0,.01-.028,1.03,1.03,0,0,1,.093.058c.009-.007.009-.012.017-.022a.393.393,0,0,1,.086.048l.009-.023a.073.073,0,0,1,.058.067.066.066,0,0,0,.081.008,2.513,2.513,0,0,0,.244.142c0-.008.006-.008.014-.022a1.046,1.046,0,0,0,.11.063c.008,0,.008-.007.008-.018a1.089,1.089,0,0,1,.115.061c0-.006.017-.014.01-.019a.2.2,0,0,1,.064.035.2.2,0,0,0,.019-.022c.1.055.21.117.312.182a3.554,3.554,0,0,1,.793.42c-.006.007-.015.012-.015.026.032.028.063-.04.119.01a.111.111,0,0,0-.018.018,2,2,0,0,0,.67.32,2.048,2.048,0,0,0,.222-.019c.045-.091.085-.179.129-.284-.01,0-.012-.01-.023-.01C136,546.682,135.944,546.665,135.967,546.57Z" transform="translate(-107.027 -471.884)" fill="#fff"/>
      <path id="路径_25703" data-name="路径 25703" d="M147.618,547.479c0-.022.013-.036.015-.057a1.228,1.228,0,0,1,.15-.006v-.032a.5.5,0,0,0,.094-.007c-.005-.011,0-.013,0-.022a.3.3,0,0,1,.1-.014v-.019a.07.07,0,0,0,.044-.009.849.849,0,0,0,.037-.079c.018,0,.037-.005.054-.005v-.015a.771.771,0,0,1,.125-.023l0-.019a.094.094,0,0,0,.05-.01v-.023c.044,0,.085-.009.139-.014,0-.009,0-.012-.006-.016a.327.327,0,0,1,.094-.039c0-.016.008-.019,0-.026.052-.013.081-.026.119-.037v-.021a1.563,1.563,0,0,0,.173-.019c.006-.022.013-.034.019-.052a.512.512,0,0,0,.1-.006c.005-.018.005-.041.015-.05a.793.793,0,0,0,.142-.044.346.346,0,0,0,.027-.075.741.741,0,0,0,.092,0,.316.316,0,0,1-.006-.08,1.323,1.323,0,0,0-.636.061c-.032.019.012-.017-.024-.017a.657.657,0,0,0-.141.04c-.008,0,0,.016,0,.026a.75.75,0,0,1-.227-.007c.009-.13.077-.164.073-.3.054-.017.064-.01.094-.031V546.4a.163.163,0,0,1,.049-.005.15.15,0,0,1,.019-.055c.037,0,.081-.008.121-.008l0-.026c.061-.026.057-.005.07-.076.021-.012.041-.021.066-.035a.03.03,0,0,0-.005-.019c.068-.044.075,0,.122-.066.064-.023.057-.012.064-.081.117,0,.17-.046.183-.134.075-.04.142-.068.217-.1.01-.092.088-.137.173-.166v-.046a.282.282,0,0,1,.077-.028.154.154,0,0,1,.019-.058h.023a.5.5,0,0,1-.012-.119c.012,0,.015-.006.019-.006,0-.024-.048-.076-.036-.138h.028c0-.106-.009-.2-.009-.3a.949.949,0,0,1,.2-.021c0-.014-.005-.034-.005-.05.13-.018.259-.037.384-.061v-.019c.048,0,.094-.014.147-.019v-.021a.3.3,0,0,1,.049,0l-.005-.024c.023,0,.053-.012.075-.012v-.023a1.076,1.076,0,0,1,.116-.012c0,.012,0,.016.005.017a.491.491,0,0,0,.164-.041.115.115,0,0,1,.01.024,2.177,2.177,0,0,0,.291-.024v-.03a.266.266,0,0,0,.088-.031v-.017c.017,0,.034-.013.054,0,0-.03.013-.033.013-.057a1.452,1.452,0,0,1,.152-.009l0-.027c.01,0,.031-.014.046,0v-.023a.349.349,0,0,1,.068-.061c-.017-.119-.03-.1-.017-.193-.04-.019-.04-.05-.061-.07a.135.135,0,0,1-.072-.022c-.015-.018-.022-.043-.037-.063h-.015a.3.3,0,0,1-.015-.048,1.667,1.667,0,0,0-.534.027c-.1.009-.195.021-.294.027a.092.092,0,0,1-.023.048.041.041,0,0,1-.045,0v.031a.2.2,0,0,1-.08-.022c0,.016.008.022.008.031a.158.158,0,0,0-.068.01v.018c-.094.029-.179.048-.267.077,0,.006.008.014,0,.023a1.49,1.49,0,0,1-.169.014.764.764,0,0,0-.277.177c-.023.032-.01.007-.023.053a1.082,1.082,0,0,1-.44.044.448.448,0,0,0,.006.05.806.806,0,0,0-.382.08.433.433,0,0,1-.027.055h-.024v-.017c-.107.017-.227.036-.347.053.009.014.012.015.009.023-.075.009-.146.01-.22.021l.008.019a.887.887,0,0,1-.13.019c0,.006.008.012.008.017-.2.035-.409.066-.61.088a.621.621,0,0,1-.017.067.289.289,0,0,1-.075.022c.009.061.006.159.044.191h.05v.015a.331.331,0,0,1,.077.046c0,.01,0,.037.01.044a.144.144,0,0,1,.1.039.059.059,0,0,1,0,.031.11.11,0,0,0,.075-.019c0,.019.005.023,0,.033.013,0,.034-.005.057-.01v.034c.019,0,.031-.012.05-.012.005.017.017.036.022.052h.077l0,.01a.059.059,0,0,0,.07-.026.15.15,0,0,0,.08.015c-.005,0-.005-.015-.005-.023a.445.445,0,0,1,.17.008c.006.015.006.022.009.026a.875.875,0,0,1,.166-.01.088.088,0,0,0,0-.032.444.444,0,0,0,.052.018v-.021c.017-.005.046-.028.064-.032,0,0,.01.012.01.027a.057.057,0,0,0,.043-.012c0,.017,0,.017,0,.028s.05-.012.075-.012c.006.035.025.048.034.075h.021c.006.179-.044.072-.079.156v.071c-.013.037-.085.037-.111.068a.268.268,0,0,0-.05.077c-.031,0-.058,0-.093,0-.013.071-.027.065-.04.128-.054.012-.061,0-.092.03v.032c-.054.045-.05-.019-.067.077-.049.018-.023,0-.044.026-.067.028-.048.017-.072.085-.124.026-.058.062-.182.1-.021.155-.416.358-.634.379a.244.244,0,0,1-.08.133c0,.079.015.157.019.237.012,0,.018,0,.023,0v.047h.032c0,.028,0,.053,0,.073a.084.084,0,0,0,.031-.005.338.338,0,0,0,.04.148c.027.026.066.041.1.066,0,.026.005.055.005.075.012,0,.012-.008.028,0v.017A3.908,3.908,0,0,0,147.618,547.479Z" transform="translate(-102.45 -471.567)" fill="#fff"/>
      <path id="路径_25704" data-name="路径 25704" d="M150.907,545.753c-.009,0-.014,0-.023,0-.021-.037,0-.075-.035-.1a.157.157,0,0,0-.043,0,.1.1,0,0,1-.034-.048c-.043,0-.081-.005-.126-.005a.16.16,0,0,1-.023-.057c-.106.014-.215.018-.321.032v-.018a.916.916,0,0,0-.1,0v-.023a.362.362,0,0,0-.1.015.162.162,0,0,0-.005-.03l-.239.019,0-.019c-.013,0-.013,0-.023,0l0,.03c-.064,0-.13,0-.2.008-.014.039-.03.058-.041.088h-.055a1,1,0,0,1-.153.113.4.4,0,0,0,.013.123h.024l0,.022a1.579,1.579,0,0,0,.168-.022.318.318,0,0,1,.027.062,1.2,1.2,0,0,1,.2-.031.079.079,0,0,1,0,.031h.052c0,.01-.005.01,0,.025a.7.7,0,0,1,.142-.014c.009,0,.006.014.009.018a.164.164,0,0,1,.044,0c.015.01.021.022.03.049a1.836,1.836,0,0,1,.235.053.294.294,0,0,0,.034.091c.1.019.193.044.3.071v.017c.07.023.058,0,.081.072.021,0,.054-.005.071-.005a.577.577,0,0,0,.036.048.32.32,0,0,0,.21-.048.2.2,0,0,0,.079-.036c0-.07.026-.308-.044-.362-.016-.068,0-.057-.079-.068a.306.306,0,0,0,0-.049C150.946,545.8,150.946,545.785,150.907,545.753Z" transform="translate(-101.745 -471.115)" fill="#fff"/>
      <path id="路径_25705" data-name="路径 25705" d="M152.268,548.982a.033.033,0,0,0-.027,0c-.035-.094-.059-.08-.134-.117l0-.023c-.031,0-.058-.008-.077-.008a.093.093,0,0,0-.01-.057.756.756,0,0,1-.148-.045v-.012c-.264.012-.527.031-.784.049a.055.055,0,0,0,0,.026c-.048,0-.085.008-.129.008.006.01.013.021.006.031a.708.708,0,0,0-.125.008l.01.023a.666.666,0,0,0-.144.023s-.008,0,0,.014c-.027,0-.041.006-.058.006,0,.016-.006.034-.013.054a.82.82,0,0,0-.156.015s0,.019.009.019a.458.458,0,0,0-.151.022c.008.005.008.01.008.01a.616.616,0,0,1-.324.035c-.009-.067-.043-.257,0-.288a.213.213,0,0,1,.045-.012,1.513,1.513,0,0,1,.093-.383c.01,0,.025-.011.046-.023.009-.11.03-.218.04-.326h.027c.005-.045.005-.081.008-.12.009-.008.013,0,.026-.008.006-.026.014-.054.018-.073a.861.861,0,0,0,.186-.1v-.026c.09-.018.178-.023.268-.049a2.1,2.1,0,0,1,.476-.142c.026-.126.03-.031.088-.083.017-.023.017-.04.023-.046a.036.036,0,0,1,.031-.013c.017-.039-.01-.054.034-.1,0-.044-.008-.084-.01-.126a.355.355,0,0,0-.054-.019c-.044-.068.037-.025-.054-.089,0-.012-.008-.014,0-.028l-.054,0,0-.021a.386.386,0,0,0-.068,0,.425.425,0,0,1-.037-.044.179.179,0,0,0-.067.009.045.045,0,0,0,0-.023.862.862,0,0,0-.182-.013.17.17,0,0,1-.018.057h-.014c0-.014-.009-.021-.009-.03a2.034,2.034,0,0,1-.244.054.441.441,0,0,0-.017.044.35.35,0,0,1-.1.014c.006.006.006.017.013.021-.052.008-.1.012-.152.018a.047.047,0,0,0,0,.025c-.021.005-.041.019-.071.03-.023-.045-.037-.031-.057-.093-.05-.04-.067-.165-.076-.267a.089.089,0,0,1-.044.007c-.021-.126-.077-.147-.1-.258l-.133-.062a.406.406,0,0,0-.023-.057.308.308,0,0,0-.075.013v-.023c-.1,0-.175.01-.222.076-.055.016-.045.021-.088.053-.006.107,0,.213,0,.325-.009-.009-.017,0-.021,0,0,.035,0,.078,0,.121h-.019a2.045,2.045,0,0,0,0,.251h-.028a.44.44,0,0,1,.012.1.07.07,0,0,0-.027,0c0,.049-.005.092-.008.148h-.024c-.044.08-.021.018-.094.062v.018c-.014,0-.031.005-.04.005v.023a1.185,1.185,0,0,1-.227.023.134.134,0,0,1,.006.029.155.155,0,0,0-.043,0,.256.256,0,0,0-.024.061c-.031.008-.013-.016-.031-.03-.054,0-.046.037-.046.037a1.252,1.252,0,0,0-.266.026c0,.013-.019.024-.022.05-.066,0-.13.01-.2.01,0,.024-.013.035-.019.058a.368.368,0,0,1-.075-.028.651.651,0,0,1-.385.07.275.275,0,0,1-.108.129c.031.117.108.141.142.239.122,0,.162.052.306.043a.288.288,0,0,0,.03.071c.187.006.374.006.562.014a.205.205,0,0,0,.019-.05,1.988,1.988,0,0,0,.264-.067v.026c.026,0,.037-.012.057,0v.016a.584.584,0,0,0,.1.048,5.23,5.23,0,0,0,.077.753.3.3,0,0,0-.079.008c-.014.03.009,0-.018.026,0,.034.012.065.012.1-.111.026-.229.052-.342.081a.222.222,0,0,1,0,.03h-.041a.188.188,0,0,1-.03.046,1.6,1.6,0,0,1-.286.028c0,.015,0,.017,0,.031a.353.353,0,0,0-.076.005.107.107,0,0,1,0,.021c-.086.012-.171.026-.266.034a.031.031,0,0,1,0,.018.1.1,0,0,0-.064.014c0,.008,0,.014,0,.019a.06.06,0,0,1-.022,0,.027.027,0,0,1-.009-.019c-.071,0-.152-.009-.229-.009v-.019a.123.123,0,0,0-.044.005.1.1,0,0,0,0-.031.825.825,0,0,0-.147.022.426.426,0,0,0-.058-.073.945.945,0,0,1-.147-.01,1.06,1.06,0,0,1-.108.107c0,.017,0,.023,0,.028a.705.705,0,0,1-.142.035.041.041,0,0,0,0,.028.135.135,0,0,0-.026,0c-.01.044-.005.1-.012.155.006-.01.025-.01.025-.01,0,.035.013.064.013.1.01,0,.027.015.049.015,0,.012,0,.018,0,.034a.27.27,0,0,0,.046-.006,1.443,1.443,0,0,0,.111.106c.031,0,.062,0,.1,0a.112.112,0,0,0,0,.046.393.393,0,0,0,.054,0c.017.074.044.066.079.116.162-.026.357-.026.44-.042a.108.108,0,0,0,0-.058c.044,0,.092-.005.148-.005-.013-.01-.013-.016,0-.026h.048a.145.145,0,0,1,0-.028c.088-.008.182-.016.267-.028,0-.005-.005-.005,0-.023.03-.008.055-.021.094-.031a.1.1,0,0,0,0-.028c.04,0,.077-.006.119-.006,0-.012,0-.019,0-.027.014,0,.028,0,.048,0v-.026c.041.005.086.005.128.01v-.027l.241-.018a.215.215,0,0,1-.009-.05l.094-.031c.01-.023.015-.031.027-.057a.286.286,0,0,1,.092-.031.483.483,0,0,0,.019-.053c.063,0,.119-.006.171-.01a.061.061,0,0,0-.005-.034h.044v-.028c.257-.026.514-.044.767-.077a.267.267,0,0,0,0-.045c.054,0,.061.019.1.019,0-.008-.006-.019-.006-.03h.024a.041.041,0,0,0,.055.022v-.026a2.619,2.619,0,0,1,.667-.039.525.525,0,0,0,.088-.013v-.019a1.414,1.414,0,0,1,.2.009v.017c.077-.007.152-.008.224-.017.006.009.006.01,0,.023a.278.278,0,0,1,.071-.006v.022a.516.516,0,0,0,.367-.106.157.157,0,0,0,.071-.076.115.115,0,0,1-.009-.057h.022C152.272,549.089,152.272,549.03,152.268,548.982Z" transform="translate(-102.373 -470.857)" fill="#fff"/>
      <path id="路径_25706" data-name="路径 25706" d="M155.43,542.4c-.013.009-.019.009-.026.018a.242.242,0,0,1-.112-.1,1.6,1.6,0,0,1-.179.026c-.073-.107-.184-.125-.264-.213a.41.41,0,0,0-.266.088c-.025,0-.044.018-.062.018a.634.634,0,0,1-.044.1c.023.041.053.08.075.12a.061.061,0,0,0-.022.009.358.358,0,0,0,.041.086h.017s0,.017.008.021c-.008,0-.008,0-.023,0,0,.01.015.026.01.026.013.046.046.1.057.141a.029.029,0,0,0-.015.006.09.09,0,0,0,.015.043c-.01,0-.015.012-.024.022.024.058.045.126.079.2a.04.04,0,0,1-.025.005l.012.027s.036,0,.036.031c0,.009,0,.009-.023.009a.237.237,0,0,1,.022.048c-.012.018-.025.03-.032.043,0,.031,0,.066.01.1a.872.872,0,0,0-.07.083.513.513,0,0,1,.032.091c-.01,0-.01,0-.017.009a.349.349,0,0,0,.031.173.26.26,0,0,0,.046-.024.473.473,0,0,0,.132.111c.031-.023.025-.036.025-.036a.56.56,0,0,1,.146-.05c.006-.016-.01-.044.044-.082a.2.2,0,0,1,.013-.113l-.013-.016c.023-.014.05-.017.071-.031a.16.16,0,0,0-.019-.048c.063-.023.128-.037.186-.066a.29.29,0,0,0-.021-.045.232.232,0,0,1,.165-.067c-.013-.089.043-.1.052-.184.022,0,.032,0,.044-.018a.313.313,0,0,1,.032-.141.026.026,0,0,1,.018-.005.247.247,0,0,0-.018-.048.113.113,0,0,1,.025-.01A.88.88,0,0,0,155.43,542.4Z" transform="translate(-100.271 -472.099)" fill="#fff"/>
      <path id="路径_25707" data-name="路径 25707" d="M153.536,543.451a.94.94,0,0,1-.1.021c-.03-.021-.037-.039-.063-.054a.291.291,0,0,0-.206.085c.032.079.063.11.084.166h.084c.1.139.192.25.29.389a.311.311,0,0,1,.248.031c.031-.024.076-.044.1-.063-.008-.013,0-.019-.013-.032.08-.061.12-.014.146-.1.089-.063.055-.126.072-.222a.078.078,0,0,0,.036-.037c0-.01,0-.033-.017-.044a.017.017,0,0,0,.018-.016.3.3,0,0,0-.018-.064c.01,0,.013-.005.018-.005-.018-.046-.028-.1-.049-.142a.027.027,0,0,0,.021-.007c-.013-.015-.013-.031-.026-.044a.137.137,0,0,1,.031-.014c-.044-.063-.093-.124-.126-.184-.04.014-.077.031-.12.043v.063a.5.5,0,0,1-.063.04.067.067,0,0,1,.012.028.37.37,0,0,0-.048.014.09.09,0,0,1,.01.03c-.037.024-.068.044-.1.068a.071.071,0,0,1,.009.019,1.94,1.94,0,0,0-.182.073A.346.346,0,0,1,153.536,543.451Z" transform="translate(-100.652 -471.816)" fill="#fff"/>
      <path id="路径_25708" data-name="路径 25708" d="M154.129,544.539c-.021.008-.034.021-.054.021a.065.065,0,0,1,.013.015.812.812,0,0,0-.117.054c.006.006.006.018.017.019-.018.01-.034.01-.043.025a.237.237,0,0,0,0,.049,3.434,3.434,0,0,1-.343.155c0,.009.015.018.009.03a.358.358,0,0,0-.184.129c.027.045.079.125.111.135a.218.218,0,0,1,.048-.01.052.052,0,0,0,.005.021h.049a.317.317,0,0,0,.057.061c.044.025.013-.032.085.025a2.187,2.187,0,0,1,.206-.085l-.014-.021a.539.539,0,0,0,.1-.076.117.117,0,0,0,.008-.049.074.074,0,0,1,.049-.019c0-.005-.013-.013,0-.023a.634.634,0,0,1,.128-.05.06.06,0,0,0-.01-.026c.044-.031.086-.057.133-.084l-.027-.04a.561.561,0,0,1,.213,0c.049.049.049.084.125.114,0,.041-.018.041-.01.1-.066.05-.119.114-.172.157v.021a.265.265,0,0,0-.049.023c.008,0,.018.005.014.009a.383.383,0,0,1-.115.053c0,.009.009.017.009.021a.305.305,0,0,0-.067.03l0,.027-.117.04a.176.176,0,0,1,0,.058c-.008.006-.03.013-.039.019a.2.2,0,0,0-.012.045.8.8,0,0,1-.315.138c.013,0,.013.01.013.019-.073.048-.057.089-.108.143a.4.4,0,0,1,.035.09c.023,0,.031-.014.054-.021.032.058.044.044.079.081.15-.061.307-.125.458-.191-.006,0-.008-.011-.008-.019a.113.113,0,0,0,.048-.016.515.515,0,0,1,.017-.088,2.364,2.364,0,0,1,.282-.083c.005.009.005.021.015.044a.543.543,0,0,0,.1-.013c.03.047.054.086.083.125.005.089.012.179.022.257a.305.305,0,0,1-.046.018c.014.039.03.075.046.117-.084.028-.165.063-.254.092.008.015.008.019.015.023a.1.1,0,0,1-.052.019c.008.007.008.021.012.03-.028.01-.066.021-.092.032,0,.01.006.014.006.022-.072.058-.132.007-.2.086-.006.019,0,.023-.006.053a.08.08,0,0,0-.046.018.094.094,0,0,0,0,.021.146.146,0,0,1-.125,0c-.008,0,0-.009-.013-.021l-.29.063,0,.022a.3.3,0,0,0-.1.068c.005.063.012.179.082.2a.211.211,0,0,0,.054.063c.032-.01.054-.026.085-.035a.145.145,0,0,0,.184.058.467.467,0,0,1,.014.046c.044-.008.084-.014.124-.018,0-.039,0-.056,0-.083a.425.425,0,0,1,.055-.044.133.133,0,0,0-.009-.031c.018,0,.036-.014.048-.014-.005-.017-.012-.017-.012-.022.045-.025.07-.048.111-.075l-.008-.017a.325.325,0,0,1,.064-.031c0-.014,0-.028,0-.054.018-.006.037-.014.049-.017s-.005-.019-.005-.032.031-.008.041-.008,0-.022-.01-.026c.067-.035.132-.068.2-.107a.491.491,0,0,1,.008-.049.3.3,0,0,1,.076-.03c-.009,0-.01-.01-.019-.022a.332.332,0,0,0,.061-.05c-.006-.052-.006-.019,0-.054a.065.065,0,0,1,0-.026c.006,0,.013-.007.014-.007s.021,0,.023-.013c.006.013.022.019.022.028.076-.035.157-.063.241-.106.008,0,.021.026.062.012l-.01-.028c.017,0,.037-.019.067-.028v-.05a.171.171,0,0,0,.061-.052c0-.023.014-.054.022-.088.019,0,.032-.014.043-.014a1.314,1.314,0,0,1,.122-.155c-.023-.062-.052-.128-.075-.191-.006.008-.006.015-.018.015a.168.168,0,0,1-.019-.047h-.053a.335.335,0,0,1-.044-.175c.008,0,.013-.009.022-.009,0-.03-.061-.022-.061-.081a.294.294,0,0,1,.031-.011.3.3,0,0,0-.031-.123c.052-.026.063-.026.088-.059-.013-.008-.005-.009-.013-.023.019-.005.031-.005.05-.012v-.062l.133-.08a.205.205,0,0,1,0-.048c.1-.043.187-.1.286-.145-.006-.005-.006-.017-.012-.024a1.179,1.179,0,0,0,.162-.062l-.017-.019a.626.626,0,0,0,.088-.058c0-.032,0-.068-.006-.1.015-.013.046-.018.061-.031a.379.379,0,0,0-.032-.085c0-.006.018-.006.019-.018a.043.043,0,0,0-.008-.017c-.012,0-.012.008-.025.008a.328.328,0,0,0-.015-.046c-.081.01-.106.019-.156-.044a1.194,1.194,0,0,0-.327.233c-.075.068-.191,0-.241.1-.074.019-.1.026-.156.039-.036-.092-.1-.152-.084-.211-.006-.188.155-.039.26-.153a.341.341,0,0,1,.036-.115c.041-.021.088-.041.137-.065-.006,0-.006-.01-.006-.014a.116.116,0,0,1,.057-.027s-.006-.019-.006-.025c.081-.026.168-.044.24-.07a.216.216,0,0,0-.01-.031c.1-.039.134-.081.115-.169a.462.462,0,0,0-.055-.269c-.067.009-.086.009-.121-.059a2.231,2.231,0,0,1-.218.059c-.008-.007,0-.014-.012-.018-.031.018-.067.047-.1.062a.022.022,0,0,1-.013-.015,1.325,1.325,0,0,1-.186.064c.005.009.013.021.006.026s-.045.01-.067.035a.347.347,0,0,1,0,.049c-.022.006-.049.021-.072.03a.284.284,0,0,1-.014.084c-.019.007-.031.021-.041.021,0,.017-.009.039-.009.052-.067.037-.129.074-.2.108,0,.017-.006.034-.006.063-.017,0-.046.01-.066.014a.158.158,0,0,1,.008.03c-.046.025-.1.054-.144.083v.026a1.066,1.066,0,0,0-.1.07c.009.049.015.01,0,.049,0,.009,0,.024.013.024-.044.021-.067.048-.11.066,0,.012,0,.017.015.021-.043.009-.059.031-.093.037v.026a.9.9,0,0,1-.133.053.042.042,0,0,0,.01.023c-.019.006-.044.021-.063.03l.005.019c-.043.019-.072.035-.113.049A.02.02,0,0,0,154.129,544.539Z" transform="translate(-100.576 -471.767)" fill="#fff"/>
      <path id="路径_25709" data-name="路径 25709" d="M155.844,544.525a.572.572,0,0,1-.119.093c-.01.024,0,.045,0,.062-.039.035-.077.068-.119.1-.021,0-.014-.035-.054,0a.035.035,0,0,0,.01.017.212.212,0,0,0-.072.028.267.267,0,0,1,0,.031c-.035.009-.066.022-.11.036.008.01.008.021.012.021a.1.1,0,0,1-.066.023.275.275,0,0,1-.026.091c-.018.019-.049.025-.083.045v.022c-.025.014-.054.035-.077.049a.247.247,0,0,0,.121.166c.019-.008.037-.014.063-.022.01.008.01.026.021.045.072-.023.143-.039.214-.062a.322.322,0,0,1,.048.062c.008,0,.022,0,.023-.009a.291.291,0,0,1,.03.071.142.142,0,0,0,.023-.017c.022.106-.01.119.008.214a.2.2,0,0,1-.046.015c.014.075-.015.075.014.155-.061.049-.055.036-.052.1-.012.01-.027.01-.044.021a.141.141,0,0,1,.019.053c-.044.031-.031.019-.044.072-.018,0-.031.021-.05.039a.372.372,0,0,1,.05.111.194.194,0,0,0-.021.062c-.03.012-.05.021-.072.031a.667.667,0,0,0,.113.191c.108-.052.07-.072.113-.159l-.005-.021a.738.738,0,0,0,.088-.031c0-.021,0-.037,0-.059a1.2,1.2,0,0,0,.165-.059.945.945,0,0,1,.027-.115.413.413,0,0,1,.07-.039c-.005,0-.012,0-.012-.018a.4.4,0,0,1,.05-.017.389.389,0,0,1,.005-.052c.027-.01.048-.023.064-.028,0-.01,0-.019-.016-.019a.09.09,0,0,1,.036-.012.375.375,0,0,0-.036-.066c.009-.009.016-.009.026-.021-.005-.01-.013-.021-.026-.041.016-.012.026-.023.044-.039a1.421,1.421,0,0,1-.079-.126.747.747,0,0,1,.055-.054.53.53,0,0,0-.135-.206.521.521,0,0,0-.2.014c-.035-.03,0-.008-.044-.03-.014-.037-.035-.068-.054-.112a.049.049,0,0,0,.031-.009.072.072,0,0,0-.012-.023,1.048,1.048,0,0,0,.164-.064.033.033,0,0,0-.012-.026.27.27,0,0,0,.048-.009c0-.009-.006-.014-.006-.024a.154.154,0,0,0,.067-.032c-.013-.005-.013-.005-.013-.018.066-.01.12-.031.178-.035a.1.1,0,0,1-.013-.032c.058-.022.115-.054.174-.071,0,0,0-.012-.009-.018a.115.115,0,0,1,.054-.019c0-.005-.013-.013-.013-.025a1.38,1.38,0,0,0,.137-.058.04.04,0,0,0-.012-.024c.091-.067.036-.111.088-.187a2.275,2.275,0,0,0-.1-.2.088.088,0,0,1-.046.021c-.037-.04-.014-.012-.041-.04,0,0-.01-.005-.01-.023-.026.023-.048.023-.075.039a.148.148,0,0,0,0-.021.275.275,0,0,0-.083.059c0-.014-.008-.019-.005-.026-.09.045-.184.081-.266.121a.09.09,0,0,0,.006.03.7.7,0,0,1-.081.059C155.85,544.49,155.844,544.507,155.844,544.525Z" transform="translate(-100.079 -471.499)" fill="#fff"/>
      <path id="路径_25710" data-name="路径 25710" d="M157.977,544.867a1.041,1.041,0,0,0-.021-.132.649.649,0,0,1-.188-.13.2.2,0,0,0-.074.03.085.085,0,0,0-.017-.055.1.1,0,0,0-.039.026c-.039-.043-.01-.026-.041-.043a.331.331,0,0,0-.249.044.039.039,0,0,0,.009.029,1.24,1.24,0,0,0-.117.045.025.025,0,0,1,0,.017c-.005.005-.021.005-.037.019a.09.09,0,0,0,.013.032.766.766,0,0,0-.1.03.057.057,0,0,1,.013.024.546.546,0,0,1-.248.039l0-.018a.878.878,0,0,0-.369.221v.057c-.054.026-.11.037-.152.063a.055.055,0,0,1,0,.025c-.021.008-.044.014-.068.022a.068.068,0,0,0,0,.027c-.04.018-.093.039-.132.053,0,.021.008.021.009.027a.09.09,0,0,1-.026,0c0,.058.043.066.067.083a.3.3,0,0,1-.086.061.238.238,0,0,0,.067.107,4.215,4.215,0,0,1,.844-.281.133.133,0,0,0,.014.045c.134-.057.209-.018.282-.088a.273.273,0,0,0,.018.042l.11-.042a.184.184,0,0,1,.043.039.565.565,0,0,0,.072-.031.277.277,0,0,0,.035.04c.1-.052.2-.1.29-.138-.005-.113.036-.084.07-.172.013,0,.021,0,.027,0a.435.435,0,0,0-.061-.116A.248.248,0,0,1,157.977,544.867Z" transform="translate(-99.792 -471.399)" fill="#fff"/>
      <path id="路径_25711" data-name="路径 25711" d="M155.488,546.494c.025,0,.027-.013.049-.018v-.046a.228.228,0,0,1,.045-.027.309.309,0,0,0,.021-.092.367.367,0,0,0,.082-.053c.013-.035.017-.075.03-.115a.4.4,0,0,0,.046-.022.167.167,0,0,0,.005-.049.1.1,0,0,1,.023-.01.381.381,0,0,1-.023-.066c.006,0,.009-.016.019-.016a.2.2,0,0,0-.061-.081c-.046,0-.155-.005-.188-.005-.106.052-.227.111-.326.156-.005-.009-.013-.012-.005-.019a.114.114,0,0,1-.058.008.014.014,0,0,0-.008-.011c-.1.057-.2.116-.3.175a.129.129,0,0,0-.006.054.336.336,0,0,0-.11.045.358.358,0,0,0-.1.148c-.014.037-.01-.005-.01.048-.034.023-.084.054-.128.084a.2.2,0,0,1,.008.067.833.833,0,0,0-.162.129c.005,0,.006.008.006.022a.322.322,0,0,0-.092.04v.048c-.075.023-.162.04-.241.067a.228.228,0,0,0,.017.024c-.017,0-.036.017-.054.017v.054a.087.087,0,0,1-.043.014.7.7,0,0,1-.023.093,1.14,1.14,0,0,0-.164.067c.008.005.01.005.012.019a.132.132,0,0,1-.044.014c0,.01,0,.01,0,.031a.718.718,0,0,0-.08.034.288.288,0,0,1-.324.072c-.067.034-.144.058-.223.09a.216.216,0,0,1-.013.062.331.331,0,0,0-.036.005.437.437,0,0,0-.074.16c-.129.054-.193.014-.3.023-.219.008-.313.221-.391.3a.641.641,0,0,1,.043.1.04.04,0,0,1,.027-.012.139.139,0,0,1,.014.045h.075c.054.023.121.062.173.083a.336.336,0,0,0,.049-.012c0,.008.01.012.01.021l.062-.03a.151.151,0,0,0,0,.021.466.466,0,0,0,.108-.066v.027c.141-.063.279-.126.414-.185a.145.145,0,0,1,.009-.058.308.308,0,0,0,.061-.032s-.009-.012,0-.015a.417.417,0,0,0,.061-.032.43.43,0,0,1,.008-.049.424.424,0,0,1,.11-.068c.014-.055.028-.109.039-.16.071-.022.133-.049.209-.068,0-.028,0-.051,0-.062.1-.032.186-.071.284-.106a.186.186,0,0,1,.021-.088.4.4,0,0,1,.085-.041c-.006,0-.006-.006-.013-.021a.143.143,0,0,1,.05-.014l-.013-.026c.052-.014.094-.041.146-.057-.008-.006-.017-.016-.014-.019a.125.125,0,0,0,.041-.023l0-.026s.015,0,.017-.005c.01.012.026.024.04.039l.094-.039a.075.075,0,0,0,.005.024.751.751,0,0,1,.164-.039c.01.005.017.014.027.019.066-.028.142-.057.22-.1.013-.007.034-.108.062-.151a.344.344,0,0,0-.018-.076c.052-.039.084-.1.162-.112a.032.032,0,0,0,.01.019c.124-.044.26-.088.392-.13C155.493,546.513,155.493,546.5,155.488,546.494Z" transform="translate(-100.911 -471.011)" fill="#fff"/>
      <path id="路径_25712" data-name="路径 25712" d="M157.427,545.908a.035.035,0,0,1-.019.017.441.441,0,0,0-.284-.071c0-.014-.013-.014-.014-.026-.021.012-.045.012-.064.03a.35.35,0,0,1-.019-.053c-.088.035-.183.056-.26.085a.063.063,0,0,1-.01-.025c-.006,0-.015.014-.031.014a.06.06,0,0,1,.018.025.786.786,0,0,0-.193.049c-.054.03-.119.088-.188.122a.29.29,0,0,0,.009.077c-.063.042-.064.071-.139.111a.2.2,0,0,1,.014.047.907.907,0,0,0-.128.074c0,.009,0,.01.01.018h-.061c.005.008.005.012.014.026a.184.184,0,0,0-.039.043c.039.068.075.142.116.215.055-.031.316-.227.409-.215l.013.017a.4.4,0,0,1,.142-.021c.021.032.031.072.053.111a.182.182,0,0,1-.026,0c.006.014.01.031.017.045a.031.031,0,0,1-.017,0,.148.148,0,0,0,.01.106c-.021.025-.043.031-.058.055.031.076.064.161.1.246a.2.2,0,0,0-.027.12.05.05,0,0,1-.023.008.048.048,0,0,0,.006.021.79.79,0,0,0-.116.05.133.133,0,0,1-.009.057.347.347,0,0,0-.094.009c0,.016,0,.035,0,.054a.762.762,0,0,0-.113.048c0,.016-.005.035-.005.059-.156.071-.311.155-.462.223a.158.158,0,0,0-.156-.061,1.5,1.5,0,0,1-.115-.141.033.033,0,0,0-.021.014.967.967,0,0,0-.039-.1c-.012,0-.032-.005-.05-.005-.019-.043-.034-.081-.053-.116a.023.023,0,0,1-.015.01.208.208,0,0,1-.025-.044.025.025,0,0,1-.017.005c-.008-.018-.019-.04-.031-.068,0,.01-.014.01-.021.01a.614.614,0,0,1-.169-.223.267.267,0,0,1-.072,0c-.012,0-.012-.017-.019-.017a.4.4,0,0,1-.064.023.193.193,0,0,1-.067-.053.117.117,0,0,1-.054.022c-.012-.013-.028-.022-.036-.036-.015.009-.031.014-.049.023a.065.065,0,0,1-.006-.024.851.851,0,0,1-.138.045c.009,0,0-.008-.01-.018-.034.018-.075.035-.11.049,0,.006,0,.017,0,.026a.345.345,0,0,0-.142.083c.044.133.064.179.192.158.025.039,0,.021.035.039.012,0,.012.014.012.023.009-.023.028-.023.033-.045a.076.076,0,0,1,.01.022c.036-.01.063-.022.094-.032.026.055.036.086.067.106a.036.036,0,0,1,.03-.01c.006.032.014.053.025.09.04.011.063.011.088.019a.148.148,0,0,1,.023.045.1.1,0,0,0,.027-.007c0,.016.014.043.021.067a.029.029,0,0,0,.025-.013.222.222,0,0,1,.019.05c.013,0,.013,0,.023-.014.033.088.068.168.1.248a.353.353,0,0,0,.043-.009c.062.122.067.07.132.131.013.022.018.039.03.062.026.005.063.022.093.028s.043.079.085.093a.256.256,0,0,1,.05-.016.07.07,0,0,0,.021.036c.113-.061.24-.238.392-.258,0,.006.013.01,0,.019a1.559,1.559,0,0,0,.186-.076c.01,0,.017,0,.018-.012.009.012.013.026.01.027a1.154,1.154,0,0,0,.312-.142c.111-.045.235-.1.347-.137,0-.014-.006-.019-.014-.032.075-.025.137-.049.2-.074a.185.185,0,0,0,.008-.053c.055-.034.121-.073.178-.1,0-.014-.01-.016-.01-.016s.018-.014.018-.023c-.018-.039-.031-.086-.052-.128.013-.014.034-.014.044-.023a.539.539,0,0,1-.034-.22.036.036,0,0,1,.023-.01c-.013-.026-.023-.058-.04-.1a.534.534,0,0,0,.005-.184c.035-.023.077-.046.108-.067,0-.01-.009-.017-.009-.019.017-.028.036-.045.053-.077-.013-.012-.013-.031-.017-.041s.01-.012.017-.015c-.013-.026-.017-.058-.032-.089l.019,0c0-.035,0-.068-.01-.1a.044.044,0,0,1,.017-.012c.006-.1-.046-.036.006-.138C157.479,546.025,157.458,545.962,157.427,545.908Z" transform="translate(-100.271 -471.037)" fill="#fff"/>
      <path id="路径_25713" data-name="路径 25713" d="M141.887,546.24a.3.3,0,0,1,.1-.141h.025c.019-.053.035-.109.054-.174.044-.03.088-.062.132-.086a.551.551,0,0,0,.006-.13c.01,0,.017,0,.019.014.009-.059.028-.107.035-.15.129-.036.058-.044.1-.124a.734.734,0,0,0,.076-.045v-.073h.024a.22.22,0,0,0,.006-.1c.013,0,.013.005.028,0v-.044h.026a.776.776,0,0,0,.057-.3h-.044c0-.012.006-.03.006-.043a.42.42,0,0,1-.08-.012.191.191,0,0,1,.006-.052h-.058c0-.05.018-.1-.009-.124a.365.365,0,0,0-.054,0,.387.387,0,0,1-.039-.071c-.013-.017-.035-.018-.054-.031a.29.29,0,0,0-.022-.1.886.886,0,0,0-.1-.021.058.058,0,0,0,.006-.034h-.075l.005-.015a.081.081,0,0,0-.055,0,.063.063,0,0,0,.009-.032c-.13-.052-.253.026-.324.039v.042h-.061a1.722,1.722,0,0,0,.037.268h.077a1.129,1.129,0,0,1-.01.351.887.887,0,0,0-.077.044c0,.045-.005.082-.008.126a.117.117,0,0,0-.046.014.89.89,0,0,0,0,.094c-.014,0-.019,0-.024,0-.039.044-.026.034-.083.055a1.3,1.3,0,0,0-.028.15c-.05.006-.019-.016-.05.015H141.4v.125a.614.614,0,0,1-.063.022.3.3,0,0,1-.017.071.319.319,0,0,1-.106.025v.068a.478.478,0,0,0-.21.282h-.046v.052a.491.491,0,0,1-.1-.008v.055c-.017,0-.037-.005-.048-.005a.255.255,0,0,0-.006.071.1.1,0,0,1-.048.021c-.027.053,0,.022-.031.053a.056.056,0,0,0,0-.026l-.019-.005a.035.035,0,0,0-.008-.022.173.173,0,0,0,.058-.021.8.8,0,0,0,.064-.347h-.024a.857.857,0,0,1-.015-.146.632.632,0,0,1-.07-.053c-.043-.063-.08-.117-.117-.177a.093.093,0,0,1-.027,0c.021-.052.036-.1.058-.147.01-.109.01-.218.01-.32h.021a.421.421,0,0,1,.006-.091h.031c0-.054.005-.1.005-.151h.027c0-.05,0-.11,0-.177h-.018c0-.1.005-.2.005-.311l-.041-.027a.853.853,0,0,0,0-.1h-.021a.445.445,0,0,1-.019-.1c-.018,0-.032-.018-.048-.025-.009-.022-.012-.051-.021-.071-.067-.028-.151-.062-.227-.092,0-.013-.013-.028-.023-.044-.034,0-.071,0-.117-.013q.008-.006,0-.019a.032.032,0,0,0-.045.019,1.9,1.9,0,0,1-.2-.035.042.042,0,0,1,0,.031c-.046,0-.1,0-.148.013-.008.044-.021.081-.027.125a.4.4,0,0,1,.168.122c.005.028.021.04.024.059h.071c.006.2.017.391.021.594h.05c-.01.249-.021.487-.036.73h-.018a.23.23,0,0,0-.063.172.346.346,0,0,1-.068.023c0,.017-.009.037,0,.046h-.049c-.013.081-.013.107-.061.147-.014.264-.1.152-.257.233a.877.877,0,0,0-.054.071c-.019,0-.048,0-.076,0-.008.027-.032.045-.052.075-.1.039-.173-.044-.267-.021-.049.021-.129.052-.174.072a.2.2,0,0,0-.022.072h-.45c.005.014,0,.018,0,.03-.014-.005-.03-.012-.04-.005s0,.011,0,.017c-.093-.005-.186-.005-.28-.006,0,0,.008.021,0,.028h-.052c-.028.03-.045.062-.072.088a.666.666,0,0,0-.1,0,.061.061,0,0,0,0,.023l-.049,0c-.008.014-.008.036-.031.048-.162.063-.232-.133-.367-.014a.152.152,0,0,0-.1.113v.075c-.026.017-.057.027-.077.044,0,.053-.008.1-.008.146a.047.047,0,0,1-.027,0v.05a.064.064,0,0,1-.023,0c0,.034,0,.067-.008.1a.436.436,0,0,1-.071.051.693.693,0,0,1-.006.116.021.021,0,0,1-.027,0,.879.879,0,0,0-.026.151l.017,0c.009.035.013.082.021.124a.794.794,0,0,0,.251.008c0-.009,0-.032,0-.049a.921.921,0,0,0,.093-.017.1.1,0,0,0,0-.055.042.042,0,0,0,.028.006c.061-.063.061-.006.076-.12a.467.467,0,0,1,.218.057c.067,0,.135.021.174-.015a.22.22,0,0,0,.023-.074h.054a.289.289,0,0,0,.034-.042.643.643,0,0,0,.115-.021c.035-.036.058-.066.088-.092a.2.2,0,0,1,.048,0,.183.183,0,0,1,.021-.05c.09.009.179.009.267.019a.06.06,0,0,1,.013-.031c.049-.04.115-.071.17-.113a.13.13,0,0,1,.028,0c-.008-.017,0-.034,0-.048.1-.026.108-.068.195-.092a.18.18,0,0,0,0-.053.19.19,0,0,0,.054,0v-.067c.034-.007.071-.012.1-.021a.239.239,0,0,0,.021-.054c.077-.032.151-.024.213-.08.077.014.155.039.236.055a.524.524,0,0,1-.008.107.071.071,0,0,0-.044-.008.5.5,0,0,0-.03.072.209.209,0,0,1-.048.022,1.144,1.144,0,0,0-.088.2.108.108,0,0,0-.046-.006.276.276,0,0,0-.021.077h-.03a.4.4,0,0,0,0,.04.376.376,0,0,1-.057.031.315.315,0,0,1,0,.07c-.017.01-.05.034-.077.049-.008.036-.021.076-.028.119a.21.21,0,0,0-.057.05.325.325,0,0,0-.043-.009v.071c-.031.023-.058.035-.077.049v.029c-.03,0-.046-.005-.075-.005.008.014-.005.019-.008.024-.068.048,0,0-.053.071a.029.029,0,0,1-.015,0,.044.044,0,0,0-.006.053.086.086,0,0,0-.05.022v.08a.067.067,0,0,0-.055.04h-.043a1.555,1.555,0,0,1-.166.239.217.217,0,0,0-.048,0c-.046.137-.046.044-.128.092a.5.5,0,0,0-.054.077.937.937,0,0,0-.119.008c-.023.032-.043.058-.054.071a.083.083,0,0,1-.044,0c-.025.03-.041.049-.062.077-.076.021-.147.037-.223.059-.03.08-.049.139-.084.222,0,.1.01.079.041.146.156,0,.231-.054.371-.054a.2.2,0,0,0,0-.048c.019,0,.031,0,.054,0v-.049a.319.319,0,0,0,.173-.062v-.03a.3.3,0,0,0,.1-.015c.009-.018.023-.026.027-.054.032-.014.1-.005.122-.034a1.21,1.21,0,0,0,.034-.125h.028a.136.136,0,0,1,.046-.068h.043a.04.04,0,0,0,.01-.032h.044v-.017a.684.684,0,0,1,.081-.036v-.08c.133-.026.107-.124.184-.168.026,0,.043.01.076.01a.18.18,0,0,1,.023-.074.545.545,0,0,0,.079-.024.462.462,0,0,1,.05-.072c.008.009.019,0,.025.009,0-.03.009-.055.009-.08a.951.951,0,0,1,.1-.07v-.052c.072-.04.135-.077.2-.111,0-.01,0-.036,0-.049a.274.274,0,0,1,.146.032c.008.045.015.075.021.125,0,0-.031,0-.021.049a.02.02,0,0,1,.021,0,.13.13,0,0,0,0,.045h.018v.034a.025.025,0,0,0-.018,0c-.005.032-.005.057-.008.1h.026c-.018.072-.023.134-.039.2l-.048.019c-.008.151-.014.293-.021.443-.04.175-.068.418-.1.584-.075.006-.1.036-.121.121l-.423.072c-.006.08-.008.161-.019.244.019.005.036.023.057.031v.049c.081.028.09.088.162.128a.486.486,0,0,1,0,.074.258.258,0,0,1,.233.182c.133,0,.263.014.4.026.01-.022.012-.04.028-.049h.046a.9.9,0,0,1,.106-.218h.048a.311.311,0,0,0,.032-.1c0,.006.014,0,.024.006-.012-.032-.012-.061-.024-.1h.024c.008-.031.021-.062.026-.1h.028a.741.741,0,0,0,.013-.153l.019.005a1.025,1.025,0,0,1,.008-.121c.01.005.014,0,.032,0,0-.044-.031-.044-.032-.044,0-.13.01-.247.023-.378.021,0,.027-.014.044-.018a.607.607,0,0,1,.012-.107c.006.009.006,0,.022.018-.009-.018,0-.019,0-.037-.015-.014-.039,0-.022-.043.006,0,.013-.009.023,0,0-.122,0-.246-.01-.367h.026a.2.2,0,0,1,.005-.045.016.016,0,0,1,.021,0c.015-.088.03-.16.043-.25.041-.01.023.01.045-.016.04-.047,0-.139.036-.252h.027v-.046a.189.189,0,0,1,.027,0c0-.034,0-.063,0-.1a.138.138,0,0,0,.05-.017c.008-.119.027-.244.04-.373a.07.07,0,0,0,.05-.021c.005-.017,0-.043.008-.071h.026v-.017a.371.371,0,0,1,.093-.026c.023-.071.046-.059.064-.121.05,0,.061,0,.092-.022.006-.009,0-.019.006-.023a.231.231,0,0,1,.068.01c.026-.035.055-.068.08-.1a.633.633,0,0,1,.125-.012v-.032a.229.229,0,0,1,.122-.068.2.2,0,0,0,.027-.073c.037-.005.068-.009.1-.016.022-.089.066-.092.084-.175a.2.2,0,0,0,.179-.156Z" transform="translate(-105.303 -471.593)" fill="#fff"/>
      <path id="路径_25714" data-name="路径 25714" d="M143.42,545.658H143.4a.167.167,0,0,1-.018-.1c-.112-.035-.12-.121-.246-.137a.112.112,0,0,0,.008-.049c-.039-.012-.076-.019-.121-.034a.523.523,0,0,1-.05-.073h-.07a.046.046,0,0,1,0-.032c-.119,0-.229-.01-.346-.01a.5.5,0,0,0-.023.071h-.052c0,.013-.005.036-.005.044a.276.276,0,0,0-.066.03c-.006.005,0,.01-.006.017a.419.419,0,0,1-.077-.005v.028c-.031,0-.066.014-.1.014.009,0,0,.024,0,.028-.072,0-.147,0-.223,0a.353.353,0,0,0-.024.043.646.646,0,0,0-.1-.005v.019c-.015,0-.036.01-.041,0-.017.021-.022.031-.036.052-.121,0-.246.006-.371.006.006.009.006.01,0,.03-.15,0-.175.052-.271.107-.017.221.019.121.112.226h.027a.434.434,0,0,0-.01.077c.148.01.3.023.444.044,0,.009,0,.013,0,.023a.087.087,0,0,0,.03,0v-.027c.037,0,.085.009.121.009v-.03h.071c0-.006.006-.013,0-.021.137,0,.268.008.4.014a.12.12,0,0,0,.005.027c.184.013.387.023.585.027a.426.426,0,0,0,.241.037.064.064,0,0,1,0-.026c.014,0,.037,0,.049.005v-.021h.076a.039.039,0,0,1,0-.024c.021,0,.052-.019.075-.019.01-.023.023-.055.032-.077a.068.068,0,0,0,.045,0c0-.046.009-.092.009-.142a.175.175,0,0,0-.054-.026A.5.5,0,0,0,143.42,545.658Z" transform="translate(-104.126 -471.204)" fill="#fff"/>
      <path id="路径_25715" data-name="路径 25715" d="M142.07,546.863v-.1a.577.577,0,0,0-.333-.164c-.013-.049,0-.018-.032-.049a.036.036,0,0,0,.013-.032H141.6a1.155,1.155,0,0,0-.465-.073v.028h-.044a.044.044,0,0,0-.01.025h-.043v.021c-.068.053-.01-.005-.055.076-.013,0-.013-.009-.03-.013a.71.71,0,0,1,0,.077c-.005,0-.012,0-.022,0a.586.586,0,0,1-.028.077c.045.042.094.082.138.13.006.009,0,.01,0,.018.032,0,.053.005.08.005a.16.16,0,0,0,.018.053c.063.034.129.068.192.108a.685.685,0,0,1,.013.1.059.059,0,0,0,.031,0,.946.946,0,0,1-.031.146c.008.008.017.008.031.008a.4.4,0,0,0-.008.092.643.643,0,0,0-.108.077v.047c-.005,0-.01-.01-.019-.01a.638.638,0,0,0,.009.351c.232.014.193-.124.367-.162.039-.088.063-.064.134-.111.04-.04.068-.081.107-.119a.131.131,0,0,0,.044.005c.022-.1.062-.1.11-.169.019-.046.037-.1.059-.138h.015a.186.186,0,0,0,0-.054.03.03,0,0,1,.026,0c-.005-.079-.006-.159-.006-.246Z" transform="translate(-104.201 -470.854)" fill="#fff"/>
      <path id="路径_25716" data-name="路径 25716" d="M141.4,548.373c-.025-.108-.064-.091-.137-.153a.311.311,0,0,1-.026-.054s-.014.005-.023,0v-.04c-.018-.009-.044-.032-.068-.034-.021-.037-.048-.068-.067-.1a.627.627,0,0,0-.251.014c-.014.067-.063.128-.08.188a1.472,1.472,0,0,0,.11.429c.035.022.077.053.116.072,0,.023,0,.035,0,.057l.028,0a.091.091,0,0,1,.014.048h.05c.01.021.01.03.03.044a.144.144,0,0,0,.061.028.9.9,0,0,1,.023.108.1.1,0,0,1,.027,0v.094h.017a1.086,1.086,0,0,1,.116.156,1.075,1.075,0,0,0,.53-.129l-.005-.014c.009,0,.015-.008.023,0,0-.03.005-.059.005-.075h.025c.006-.111.014-.232.019-.351C141.877,548.529,141.581,548.414,141.4,548.373Z" transform="translate(-104.243 -470.406)" fill="#fff"/>
      <path id="路径_25717" data-name="路径 25717" d="M146.744,518.577,139,521.226l15.379.007Z" transform="translate(-104.75 -478.915)" fill="#fff"/>
      <rect id="矩形_2259" data-name="矩形 2259" width="15.319" height="1.286" transform="translate(34.28 42.961)" fill="#fff"/>
      <rect id="矩形_2260" data-name="矩形 2260" width="16.697" height="1.313" transform="translate(33.588 51.488)" fill="#fff"/>
      <path id="路径_25718" data-name="路径 25718" d="M139.023,532.918h1.684v-2.547h2.048v2.547h2.9v-2.547H147.7v2.547h2.907v-2.547h2.043v2.547h1.69v-3.671H139.023Z" transform="translate(-104.742 -475.828)" fill="#fff"/>
      <path id="路径_25719" data-name="路径 25719" d="M154.5,522.619H139.178v5.266h-.692v.642h16.7v-.642H154.5Zm-10.663,5.259H140.8V523.7h3.036Zm4.519,0h-3.036V523.7h3.036Zm4.522,0h-3.036V523.7h3.036Z" transform="translate(-104.898 -477.745)" fill="#fff"/>
      <path id="路径_25720" data-name="路径 25720" d="M151.646,497.153a29.863,29.863,0,0,0-2.338,59.635l2.338,4.039,2.329-4.039a29.863,29.863,0,0,0-2.329-59.635Zm-20.565,9.308a29.116,29.116,0,0,1,46.788,7.98H125.424A29.109,29.109,0,0,1,131.081,506.461Zm28.461,37.014h-15.77l-7.521-13.052h2.359v-2.733h2.739a9.328,9.328,0,0,1,2.684-4.6,11.345,11.345,0,0,1,5.48-2.478v-1.26h-.507v-.218a4.274,4.274,0,0,1,1.037-.534,7.769,7.769,0,0,1,1.387-.353v-1.8h.435v1.8a8.038,8.038,0,0,1,1.38.353,4.608,4.608,0,0,1,1.049.534v.218h-.518v1.26a9.261,9.261,0,0,1,5.474,2.478,8.759,8.759,0,0,1,2.687,4.6h2.731v2.736h2.414Zm-10.566-23.6v.291a10.947,10.947,0,0,0-5.276,2.466,10.675,10.675,0,0,0-2.789,4.51h-2.867V529.9h-2.1l-7.751-13.45h22.682v1.336a6.536,6.536,0,0,0-1.358.429,5.22,5.22,0,0,0-1.056.686v.975ZM167.387,529.9H165.2v-2.753h-2.87a9.8,9.8,0,0,0-8.039-7.042v-.229h.517v-1a5.323,5.323,0,0,0-1.2-.687,11.785,11.785,0,0,0-1.209-.4v-1.336h22.767Zm-36.306,17.687a29.054,29.054,0,0,1-5.906-32.589l23.664,40.968A29,29,0,0,1,131.081,547.582Zm20.565,9.556-7.143-12.4h14.306Zm20.552-9.556a28.926,28.926,0,0,1-17.742,8.379l23.658-40.968a29.046,29.046,0,0,1-5.915,32.589Z" transform="translate(-109.732 -485.113)" fill="#fff"/>
    </g>
    <g id="组_13852" data-name="组 13852" transform="translate(206.325 6465.605)">
      <g id="组_2215" data-name="组 2215" transform="translate(0 0)">
        <path id="路径_29791" data-name="路径 29791" d="M199.565,383.13l.166,6.771h-.617a6.943,6.943,0,0,0-2.134-4.1,5.375,5.375,0,0,0-3.679-1.55,3.439,3.439,0,0,0-2.419.815,2.489,2.489,0,0,0-.892,1.882,2.28,2.28,0,0,0,.314,1.195,5.116,5.116,0,0,0,1.393,1.4,30.911,30.911,0,0,0,3.252,1.752,14.509,14.509,0,0,1,4.811,3.314,5.6,5.6,0,0,1,1.227,3.563A5.762,5.762,0,0,1,199,402.555a7.127,7.127,0,0,1-5.039,1.835,8.273,8.273,0,0,1-1.814-.2A13.685,13.685,0,0,1,190,403.46a3.241,3.241,0,0,0-1.183-.3,1.476,1.476,0,0,0-.824.3,2.065,2.065,0,0,0-.7.913h-.557V396.7h.557a8.8,8.8,0,0,0,2.538,4.939,5.941,5.941,0,0,0,4.052,1.7,3.818,3.818,0,0,0,2.677-.913,2.821,2.821,0,0,0,1-2.128,2.79,2.79,0,0,0-.382-1.393,4.452,4.452,0,0,0-1.162-1.281,17.6,17.6,0,0,0-2.757-1.58,23.982,23.982,0,0,1-3.987-2.324,7.079,7.079,0,0,1-1.862-2.143,5.3,5.3,0,0,1-.652-2.606,5.508,5.508,0,0,1,1.782-4.135,6.236,6.236,0,0,1,4.494-1.707,7.65,7.65,0,0,1,1.918.24,9.4,9.4,0,0,1,1.716.667,4,4,0,0,0,1.417.486.8.8,0,0,0,.614-.24,2.809,2.809,0,0,0,.418-1.153Z" transform="translate(-186.738 -383.13)" fill="#fff"/>
        <path id="路径_29792" data-name="路径 29792" d="M203.015,383.2a10.078,10.078,0,0,1,10.924,10.366,10.838,10.838,0,0,1-2.262,6.8,10.066,10.066,0,0,1-8.466,3.892,10.262,10.262,0,0,1-8.478-3.714,10.743,10.743,0,0,1-2.369-6.966,10.131,10.131,0,0,1,3.08-7.544A9.8,9.8,0,0,1,203.015,383.2Zm.181.96A4.578,4.578,0,0,0,198.957,387a15.237,15.237,0,0,0-1.183,6.714q0,5.2,1.826,7.684a4.157,4.157,0,0,0,3.566,1.74,4.276,4.276,0,0,0,2.579-.75,6.158,6.158,0,0,0,2.051-3.065,17,17,0,0,0,.732-5.49,18.347,18.347,0,0,0-.744-6.026,5.882,5.882,0,0,0-1.915-2.828A4.489,4.489,0,0,0,203.2,384.158Z" transform="translate(-175.686 -383.017)" fill="#fff"/>
        <path id="路径_29793" data-name="路径 29793" d="M200.253,383.287h10.488v.554h-.525a3.653,3.653,0,0,0-1.624.246,1.373,1.373,0,0,0-.628.682,7.25,7.25,0,0,0-.187,2.173v9.952a10.023,10.023,0,0,0,.412,3.608,3.4,3.4,0,0,0,1.352,1.467,4.454,4.454,0,0,0,2.386.584,5.1,5.1,0,0,0,2.807-.741,4.556,4.556,0,0,0,1.74-2.045,12.48,12.48,0,0,0,.575-4.539v-8.286a4.738,4.738,0,0,0-.285-1.947,1.709,1.709,0,0,0-.717-.809,4.247,4.247,0,0,0-1.9-.344v-.554h7.026v.554h-.418a2.685,2.685,0,0,0-1.423.344,1.933,1.933,0,0,0-.824,1.035,5.051,5.051,0,0,0-.2,1.722v7.716a19.983,19.983,0,0,1-.471,5.17,5.723,5.723,0,0,1-2.3,2.92,8.3,8.3,0,0,1-4.989,1.334,9.492,9.492,0,0,1-4.073-.706,5.97,5.97,0,0,1-2.772-2.458,8.485,8.485,0,0,1-.809-4.025v-9.952a7.039,7.039,0,0,0-.2-2.182,1.446,1.446,0,0,0-.673-.679,4.034,4.034,0,0,0-1.77-.24Z" transform="translate(-160.189 -382.822)" fill="#fff"/>
        <path id="路径_29794" data-name="路径 29794" d="M226.109,383.287v5.5h-.54a8.755,8.755,0,0,0-1.061-2.733,4.138,4.138,0,0,0-1.607-1.325,5.108,5.108,0,0,0-1.992-.27H219.4v15.67a6.264,6.264,0,0,0,.172,1.948,1.527,1.527,0,0,0,.673.682,2.721,2.721,0,0,0,1.373.291h.676v.557H211.652v-.557h.673a2.85,2.85,0,0,0,1.426-.308,1.457,1.457,0,0,0,.611-.723,6.013,6.013,0,0,0,.169-1.888v-15.67h-1.47a4.278,4.278,0,0,0-2.982.868,5.749,5.749,0,0,0-1.648,3.459h-.569v-5.5Z" transform="translate(-145.246 -382.822)" fill="#fff"/>
        <path id="路径_29795" data-name="路径 29795" d="M222.352,393.834v6.29a6.461,6.461,0,0,0,.172,1.948,1.528,1.528,0,0,0,.679.682,2.667,2.667,0,0,0,1.352.291h.673v.557H214.606v-.557h.679a2.838,2.838,0,0,0,1.423-.308,1.411,1.411,0,0,0,.6-.723,6.255,6.255,0,0,0,.166-1.888V386.761a6.812,6.812,0,0,0-.166-1.948,1.506,1.506,0,0,0-.667-.679,2.655,2.655,0,0,0-1.355-.293h-.679v-.554h10.621v.554h-.673a2.853,2.853,0,0,0-1.423.311,1.493,1.493,0,0,0-.614.723,6.127,6.127,0,0,0-.166,1.885v5.754h7.177v-5.754a6.891,6.891,0,0,0-.16-1.948,1.522,1.522,0,0,0-.673-.679,2.707,2.707,0,0,0-1.369-.293h-.658v-.554h10.609v.554h-.658a2.77,2.77,0,0,0-1.423.311,1.453,1.453,0,0,0-.617.723,6.034,6.034,0,0,0-.166,1.885v13.363a6.549,6.549,0,0,0,.166,1.948,1.491,1.491,0,0,0,.676.682,2.723,2.723,0,0,0,1.364.291h.658v.557H226.668v-.557h.658a2.79,2.79,0,0,0,1.426-.308,1.452,1.452,0,0,0,.617-.723,6.329,6.329,0,0,0,.16-1.888v-6.29Z" transform="translate(-131.995 -382.822)" fill="#fff"/>
        <path id="路径_29796" data-name="路径 29796" d="M230.394,384.455v8.271h.406a3.218,3.218,0,0,0,2.8-1.215,7.5,7.5,0,0,0,1.106-3.581h.569v10.636h-.569a7.916,7.916,0,0,0-.759-2.84,3.223,3.223,0,0,0-1.34-1.5,5.129,5.129,0,0,0-2.217-.383v5.724a8.066,8.066,0,0,0,.145,2.054,1.237,1.237,0,0,0,.528.614,2.513,2.513,0,0,0,1.26.24h1.215a6.559,6.559,0,0,0,7.029-5.333h.551l-.916,6.456H222.648v-.557h.676a2.81,2.81,0,0,0,1.42-.308,1.4,1.4,0,0,0,.6-.723,6.192,6.192,0,0,0,.163-1.888V386.761a10.984,10.984,0,0,0-.074-1.69,1.45,1.45,0,0,0-.554-.812,2.585,2.585,0,0,0-1.559-.418h-.676v-.554h17.007v6.006h-.566a7.372,7.372,0,0,0-1.224-3.16,4.546,4.546,0,0,0-2.226-1.408,12,12,0,0,0-3.145-.27Z" transform="translate(-116.197 -382.822)" fill="#fff"/>
        <path id="路径_29797" data-name="路径 29797" d="M241.946,398.1h-7.174l-.854,1.974a4.363,4.363,0,0,0-.418,1.633,1.347,1.347,0,0,0,.688,1.257,5.8,5.8,0,0,0,1.995.359v.557h-6.756v-.557a3.016,3.016,0,0,0,1.794-.9,11.8,11.8,0,0,0,1.737-3.065l7.266-16.209h.288l7.322,16.66a10.339,10.339,0,0,0,1.728,2.985,2.331,2.331,0,0,0,1.438.533v.557h-9.827v-.557h.4a3.076,3.076,0,0,0,1.663-.326.8.8,0,0,0,.332-.688,1.915,1.915,0,0,0-.089-.554c-.021-.092-.172-.466-.451-1.126Zm-.507-1.112-3.027-7-3.113,7Z" transform="translate(-102.88 -383.1)" fill="#fff"/>
        <path id="路径_29798" data-name="路径 29798" d="M250.178,383.13l.166,6.771h-.611a6.979,6.979,0,0,0-2.137-4.1,5.387,5.387,0,0,0-3.682-1.55,3.443,3.443,0,0,0-2.419.815,2.485,2.485,0,0,0-.889,1.882,2.28,2.28,0,0,0,.314,1.195,5.142,5.142,0,0,0,1.39,1.4,31.4,31.4,0,0,0,3.255,1.752,14.372,14.372,0,0,1,4.805,3.314,5.575,5.575,0,0,1,1.233,3.563,5.779,5.779,0,0,1-1.983,4.384,7.147,7.147,0,0,1-5.045,1.835,8.273,8.273,0,0,1-1.814-.2,13.688,13.688,0,0,1-2.143-.735,3.215,3.215,0,0,0-1.18-.3,1.461,1.461,0,0,0-.824.3,2.044,2.044,0,0,0-.7.913h-.554V396.7h.554a8.744,8.744,0,0,0,2.54,4.939,5.913,5.913,0,0,0,4.049,1.7,3.815,3.815,0,0,0,2.674-.913,2.77,2.77,0,0,0,.62-3.522,4.6,4.6,0,0,0-1.165-1.281,17.6,17.6,0,0,0-2.757-1.58,24.106,24.106,0,0,1-3.987-2.324,7.122,7.122,0,0,1-1.862-2.143,5.269,5.269,0,0,1-.655-2.606,5.511,5.511,0,0,1,1.785-4.135,6.236,6.236,0,0,1,4.488-1.707,7.7,7.7,0,0,1,1.924.24,9.465,9.465,0,0,1,1.713.667,4.016,4.016,0,0,0,1.417.486.791.791,0,0,0,.614-.24,2.834,2.834,0,0,0,.424-1.153Z" transform="translate(-87.303 -383.13)" fill="#fff"/>
        <path id="路径_29799" data-name="路径 29799" d="M261.195,383.287v5.5h-.54a8.679,8.679,0,0,0-1.061-2.733,4.054,4.054,0,0,0-1.607-1.325,5.08,5.08,0,0,0-1.992-.27H254.48v15.67a6.432,6.432,0,0,0,.175,1.948,1.528,1.528,0,0,0,.673.682,2.741,2.741,0,0,0,1.376.291h.676v.557H246.738v-.557h.679a2.834,2.834,0,0,0,1.42-.308,1.476,1.476,0,0,0,.614-.723,6.255,6.255,0,0,0,.166-1.888v-15.67h-1.47a4.251,4.251,0,0,0-2.976.868,5.756,5.756,0,0,0-1.657,3.459h-.56v-5.5Z" transform="translate(-76.312 -382.822)" fill="#fff"/>
        <path id="路径_29800" data-name="路径 29800" d="M252.124,383.287h10.488v.554h-.525a3.652,3.652,0,0,0-1.624.246,1.407,1.407,0,0,0-.632.682,7.51,7.51,0,0,0-.184,2.173v9.952a10.093,10.093,0,0,0,.412,3.608,3.385,3.385,0,0,0,1.352,1.467,4.45,4.45,0,0,0,2.389.584,5.1,5.1,0,0,0,2.8-.741,4.532,4.532,0,0,0,1.737-2.045,12.384,12.384,0,0,0,.581-4.539v-8.286a4.78,4.78,0,0,0-.287-1.947,1.725,1.725,0,0,0-.717-.809,4.247,4.247,0,0,0-1.9-.344v-.554h7.029v.554h-.424a2.712,2.712,0,0,0-1.423.344,1.987,1.987,0,0,0-.824,1.035,5.146,5.146,0,0,0-.2,1.722v7.716a19.974,19.974,0,0,1-.471,5.17,5.737,5.737,0,0,1-2.3,2.92,8.293,8.293,0,0,1-4.986,1.334,9.487,9.487,0,0,1-4.076-.706,6.007,6.007,0,0,1-2.775-2.458,8.522,8.522,0,0,1-.809-4.025v-9.952a7.075,7.075,0,0,0-.193-2.182,1.46,1.46,0,0,0-.673-.679,4.049,4.049,0,0,0-1.77-.24Z" transform="translate(-58.295 -382.822)" fill="#fff"/>
        <path id="路径_29801" data-name="路径 29801" d="M266.707,383.287l10.023,12.6V387.15a4.12,4.12,0,0,0-.525-2.472,2.886,2.886,0,0,0-2.41-.836v-.554H280.5v.554a5.2,5.2,0,0,0-1.731.427,1.773,1.773,0,0,0-.685.851,5.872,5.872,0,0,0-.249,2.03v16.915h-.507l-13.74-16.915v12.916a2.845,2.845,0,0,0,.8,2.366,2.919,2.919,0,0,0,1.835.614h.477v.557h-7.2v-.557a2.5,2.5,0,0,0,2.994-2.979V385.727l-.439-.537a3.9,3.9,0,0,0-1.135-1.067,3.459,3.459,0,0,0-1.42-.281v-.554Z" transform="translate(-43.798 -382.822)" fill="#fff"/>
        <path id="路径_29802" data-name="路径 29802" d="M277.665,403.044v.557H267.038v-.557h.676a2.85,2.85,0,0,0,1.426-.308,1.365,1.365,0,0,0,.6-.723,6.208,6.208,0,0,0,.169-1.888V386.761a6.761,6.761,0,0,0-.169-1.948,1.447,1.447,0,0,0-.667-.679,2.626,2.626,0,0,0-1.355-.293h-.676v-.554h10.627v.554h-.673a2.835,2.835,0,0,0-1.426.311,1.453,1.453,0,0,0-.616.723,6.353,6.353,0,0,0-.157,1.885v13.363a6.441,6.441,0,0,0,.166,1.948,1.559,1.559,0,0,0,.673.682,2.71,2.71,0,0,0,1.361.291Z" transform="translate(-28.998 -382.822)" fill="#fff"/>
        <path id="路径_29803" data-name="路径 29803" d="M292.545,383.287v.554a3.322,3.322,0,0,0-1.98,1.183,18.508,18.508,0,0,0-1.87,3.522l-7,15.518h-.489l-6.969-16.147a20.31,20.31,0,0,0-1.69-3.433,2.386,2.386,0,0,0-1.607-.643v-.554h9.741v.554h-.335a3.4,3.4,0,0,0-1.79.329.726.726,0,0,0-.35.655,1.911,1.911,0,0,0,.122.637c.074.249.35.9.812,1.974l4.328,10.111,4.011-9a23.3,23.3,0,0,0,.886-2.188,3.412,3.412,0,0,0,.163-.943,1.4,1.4,0,0,0-.234-.8,1.518,1.518,0,0,0-.709-.525,4.751,4.751,0,0,0-1.707-.252v-.554Z" transform="translate(-21.331 -382.822)" fill="#fff"/>
        <path id="路径_29804" data-name="路径 29804" d="M286.291,384.455v8.271h.406a3.216,3.216,0,0,0,2.8-1.215,7.5,7.5,0,0,0,1.1-3.581h.575v10.636H290.6a7.8,7.8,0,0,0-.753-2.84,3.243,3.243,0,0,0-1.343-1.5,5.123,5.123,0,0,0-2.214-.383v5.724a8.272,8.272,0,0,0,.142,2.054,1.243,1.243,0,0,0,.531.614,2.5,2.5,0,0,0,1.26.24h1.215a6.542,6.542,0,0,0,7.02-5.333h.56L296.1,403.6H278.542v-.557h.679a2.825,2.825,0,0,0,1.42-.308,1.4,1.4,0,0,0,.6-.723,6.146,6.146,0,0,0,.166-1.888V386.761a11.021,11.021,0,0,0-.074-1.69,1.437,1.437,0,0,0-.554-.812,2.581,2.581,0,0,0-1.556-.418h-.679v-.554h17v6.006h-.566a7.377,7.377,0,0,0-1.218-3.16,4.559,4.559,0,0,0-2.226-1.408,12.03,12.03,0,0,0-3.151-.27Z" transform="translate(-6.4 -382.822)" fill="#fff"/>
        <path id="路径_29805" data-name="路径 29805" d="M293.012,394.344v5.691a6.45,6.45,0,0,0,.2,2.075,1.5,1.5,0,0,0,.715.682,4.766,4.766,0,0,0,1.9.252v.557h-10.4v-.557a4.73,4.73,0,0,0,1.906-.255,1.526,1.526,0,0,0,.705-.688,6.161,6.161,0,0,0,.2-2.066V386.853a6.239,6.239,0,0,0-.2-2.075,1.464,1.464,0,0,0-.714-.685,4.771,4.771,0,0,0-1.9-.252v-.554h9.439a20.713,20.713,0,0,1,5.392.507,5.458,5.458,0,0,1,2.789,1.879,5.058,5.058,0,0,1,1.076,3.213,4.809,4.809,0,0,1-1.619,3.717,6.683,6.683,0,0,1-2.89,1.393l4.882,6.88a10.152,10.152,0,0,0,1.366,1.66,2.54,2.54,0,0,0,1.42.507v.557h-6.394l-6.548-9.258Zm0-9.963v8.9h.854a9.565,9.565,0,0,0,3.119-.383,3.113,3.113,0,0,0,1.625-1.381,5.024,5.024,0,0,0,.593-2.594,3.948,3.948,0,0,0-4.586-4.541Z" transform="translate(7.135 -382.822)" fill="#fff"/>
        <path id="路径_29806" data-name="路径 29806" d="M306.071,383.13l.166,6.771h-.614a6.937,6.937,0,0,0-2.129-4.1,5.4,5.4,0,0,0-3.688-1.55,3.433,3.433,0,0,0-2.413.815,2.492,2.492,0,0,0-.9,1.882,2.254,2.254,0,0,0,.317,1.195,5.156,5.156,0,0,0,1.393,1.4,31.047,31.047,0,0,0,3.249,1.752,14.443,14.443,0,0,1,4.811,3.314,5.587,5.587,0,0,1,1.227,3.563,5.776,5.776,0,0,1-1.98,4.384,7.152,7.152,0,0,1-5.045,1.835,8.292,8.292,0,0,1-1.814-.2,13.462,13.462,0,0,1-2.14-.735,3.253,3.253,0,0,0-1.189-.3,1.475,1.475,0,0,0-.821.3,2.088,2.088,0,0,0-.7.913h-.554V396.7h.554a8.763,8.763,0,0,0,2.541,4.939,5.937,5.937,0,0,0,4.055,1.7,3.8,3.8,0,0,0,2.671-.913,2.753,2.753,0,0,0,.617-3.522,4.424,4.424,0,0,0-1.165-1.281,17.591,17.591,0,0,0-2.757-1.58,24.3,24.3,0,0,1-3.984-2.324,7.171,7.171,0,0,1-1.865-2.143,5.328,5.328,0,0,1-.649-2.606,5.508,5.508,0,0,1,1.782-4.135,6.234,6.234,0,0,1,4.491-1.707,7.633,7.633,0,0,1,1.918.24,9.312,9.312,0,0,1,1.716.667,4.006,4.006,0,0,0,1.42.486.789.789,0,0,0,.611-.24,2.811,2.811,0,0,0,.418-1.153Z" transform="translate(22.493 -383.13)" fill="#fff"/>
        <path id="路径_29807" data-name="路径 29807" d="M309.307,403.044v.557h-10.63v-.557h.673a2.855,2.855,0,0,0,1.429-.308,1.366,1.366,0,0,0,.6-.723,5.888,5.888,0,0,0,.172-1.888V386.761a6.408,6.408,0,0,0-.172-1.948,1.483,1.483,0,0,0-.664-.679,2.651,2.651,0,0,0-1.361-.293h-.673v-.554h10.63v.554h-.679a2.865,2.865,0,0,0-1.426.311,1.426,1.426,0,0,0-.608.723,6.127,6.127,0,0,0-.166,1.885v13.363a6.463,6.463,0,0,0,.172,1.948,1.49,1.49,0,0,0,.676.682,2.659,2.659,0,0,0,1.352.291Z" transform="translate(33.153 -382.822)" fill="#fff"/>
        <path id="路径_29808" data-name="路径 29808" d="M321.119,383.287v5.5h-.534a8.67,8.67,0,0,0-1.064-2.733,4.118,4.118,0,0,0-1.607-1.325,5.108,5.108,0,0,0-1.992-.27H314.41v15.67a6.469,6.469,0,0,0,.172,1.948,1.535,1.535,0,0,0,.67.682,2.738,2.738,0,0,0,1.378.291h.67v.557H306.662v-.557h.673a2.869,2.869,0,0,0,1.429-.308,1.439,1.439,0,0,0,.608-.723,6.017,6.017,0,0,0,.169-1.888v-15.67h-1.467a4.259,4.259,0,0,0-2.979.868,5.7,5.7,0,0,0-1.648,3.459h-.572v-5.5Z" transform="translate(41.396 -382.822)" fill="#fff"/>
        <path id="路径_29809" data-name="路径 29809" d="M331.04,383.287v.554a2.981,2.981,0,0,0-1.545.584,15.766,15.766,0,0,0-2.371,3.43l-4.405,7.354v4.915a6.776,6.776,0,0,0,.166,1.956,1.517,1.517,0,0,0,.652.673,2.507,2.507,0,0,0,1.3.291h1.138v.557h-11.4v-.557h1.064a2.793,2.793,0,0,0,1.423-.308,1.477,1.477,0,0,0,.614-.723,6.153,6.153,0,0,0,.166-1.888v-4.073l-4.779-8.7a12.964,12.964,0,0,0-2.01-3.036,2.5,2.5,0,0,0-1.556-.471v-.554h9.735v.554h-.43a2.217,2.217,0,0,0-1.239.252.707.707,0,0,0-.35.543,9,9,0,0,0,1.2,2.712l3.673,6.726,3.655-6.13a8.17,8.17,0,0,0,1.361-2.979.8.8,0,0,0-.391-.673,3.628,3.628,0,0,0-1.871-.451v-.554Z" transform="translate(54.404 -382.822)" fill="#fff"/>
      </g>
      <path id="路径_63664" data-name="路径 63664" d="M7.219-9.575v-.71H.63v.71L2.5-9.4c.039,1.993.039,3.985.039,5.958v.967c0,2.012,0,4-.039,5.958L.63,3.663v.69H7.219v-.69L5.345,3.485C5.286,1.512,5.286-.5,5.286-2.473v-.967c0-2.012,0-3.985.059-5.958Zm16.434-.71H18.326v.71l2.545.276L20.93.447,13.2-10.285H9.034v.71l1.5.178.316.414-.1,12.409-1.835.237v.69h5.327v-.69l-2.525-.256L11.658-7.839l8.72,12.271h1.361l.1-13.75,1.815-.256Zm17.361.829L41.822-6.2h1.1l-.118-4.084H30.281L30.143-6.2h1.1l.829-3.255h3.058c.02,1.993.02,4.025.02,6.017v.967c0,2.012,0,4-.02,5.958l-2.111.178v.69h7.043v-.69l-2.111-.178c-.039-1.993-.039-3.985-.039-5.958v-.967c0-2.032,0-4.044.039-6.017Zm18.781-.118v-.71H53.3v.71l1.8.178c.039,1.953.039,3.926.039,5.879H49.1c0-1.973,0-3.946.059-5.879l1.8-.178v-.71H44.466v.71l1.874.2c.02,1.973.02,3.965.02,5.938v.967c0,2.012,0,4-.02,5.958l-1.874.178v.69h6.491v-.69l-1.8-.158C49.1,1.532,49.1-.48,49.1-2.749h6.037c0,2.288,0,4.3-.039,6.254l-1.8.158v.69h6.491v-.69L57.92,3.485C57.9,1.512,57.9-.5,57.9-2.473v-.967c0-2.012,0-3.985.02-5.958ZM72.164.388l-.769,3.156H66.482c-.059-2.012-.059-4.044-.059-6.273H69.4l.276,2.071h.927V-5.629h-.927l-.3,2.15H66.423c0-2.071,0-4.044.059-5.978H71l.75,3.038h1.065l-.02-3.867H61.767v.71l1.874.178c.039,1.993.039,3.985.039,5.958v.967c0,2.012,0,4-.039,5.958l-1.874.178v.69H73.19L73.249.388ZM92.366.21H91.222l-.868,3.334a5.106,5.106,0,0,1-1.933.375c-2.959,0-5.129-2.21-5.129-6.865,0-4.616,2.21-6.885,5.129-6.885A4.513,4.513,0,0,1,90.2-9.5l.868,3.373h1.125l.039-3.413a8.02,8.02,0,0,0-4.163-1.1c-4.222,0-7.714,2.742-7.714,7.674,0,4.912,3.255,7.694,7.635,7.694a8.721,8.721,0,0,0,4.4-1.124Zm8.542-9.785v-.71H94.319v.71l1.874.178c.039,1.993.039,3.985.039,5.958v.967c0,2.012,0,4-.039,5.958l-1.874.178v.69h6.589v-.69l-1.874-.178c-.059-1.973-.059-3.985-.059-5.958v-.967c0-2.012,0-3.985.059-5.958Zm12.37.118.809,3.255h1.1l-.118-4.084H102.545L102.407-6.2h1.1l.829-3.255H107.4c.02,1.993.02,4.025.02,6.017v.967c0,2.012,0,4-.02,5.958l-2.111.178v.69h7.043v-.69l-2.111-.178c-.039-1.993-.039-3.985-.039-5.958v-.967c0-2.032,0-4.044.039-6.017Zm14.6.138,1.736-.256v-.71h-4.735v.71l1.953.256-3.1,6.727-3.117-6.767,2.012-.217v-.71h-6.471v.71l1.3.138,3.965,8.049c0,2.21,0,3.452-.039,4.873l-2.111.178v.69h7.063v-.69l-2.131-.178c-.039-1.5-.039-2.821-.039-5.248ZM138.9-2.966c0-3.788,1.223-6.865,3.867-6.865s3.886,3.078,3.886,6.865c0,3.847-1.243,6.885-3.886,6.885S138.9.881,138.9-2.966Zm3.867-7.674c-3.571,0-6.826,2.742-6.826,7.674,0,5.031,3.235,7.694,6.826,7.694s6.806-2.742,6.806-7.694C149.577-7.957,146.362-10.64,142.771-10.64Zm17.834,1.184.75,3.038h1.065l-.02-3.867H151.274v.71l1.874.178c.039,1.993.039,3.985.039,5.958v.967c0,2.012,0,4-.039,5.958l-1.874.178v.69H158.1v-.69l-2.111-.2c-.059-1.973-.059-4-.059-6.195h3.018l.3,2.229h.927V-5.629h-.927l-.3,2.15H155.93c0-2.071,0-4.044.059-5.978Zm23.259-.829h-5.327v.71l2.545.276.059,9.746-7.733-10.732h-4.163v.71l1.5.178.316.414-.1,12.409-1.835.237v.69h5.327v-.69l-2.525-.256L171.87-7.839l8.72,12.271h1.361l.1-13.75,1.815-.256Zm4.222,9.173,2.091-6.767,2.17,6.767Zm8.562,4.6-4.715-13.829h-1.716l-4.5,13.77-1.7.237v.69h4.616v-.69l-1.933-.237L187.87-.381h4.715l1.243,3.827-1.914.217v.69h6.372v-.69Zm17.361-13.77h-5.327v.71l2.545.276.059,9.746-7.733-10.732h-4.163v.71l1.5.178.316.414-.1,12.409-1.835.237v.69H204.6v-.69l-2.525-.256-.059-11.245,8.72,12.271H212.1l.1-13.75,1.815-.256Zm8.582,0h-6.806v.71l2.071.2c.079,8.286.158,11.127.158,12.764,0,1.993-.335,3.156-.907,3.768l-.572-.651a2.195,2.195,0,0,0-1.677-.947,1.391,1.391,0,0,0-1.48,1.3,2.2,2.2,0,0,0,2.229,1.124,4.506,4.506,0,0,0,4.4-3.413,14.309,14.309,0,0,0,.671-5.327V-3.538c0-1.973,0-3.926.02-5.859l1.894-.178Zm8.286.71v-.71h-6.589v.71l1.874.178c.039,1.993.039,3.985.039,5.958v.967c0,2.012,0,4-.039,5.958l-1.874.178v.69h6.589v-.69L229,3.485c-.059-1.973-.059-3.985-.059-5.958v-.967c0-2.012,0-3.985.059-5.958Zm16.434-.71h-5.327v.71l2.545.276.059,9.746-7.733-10.732h-4.163v.71l1.5.178.316.414-.1,12.409-1.835.237v.69H237.9v-.69l-2.525-.256-.059-11.245,8.72,12.271H245.4l.1-13.75,1.815-.256Zm15.21,7.536h-6.195v.69l2.17.217c.039,1.42.059,2.8.059,4.242V3.682a6.581,6.581,0,0,1-1.8.237c-2.92,0-5.011-2.584-5.011-6.885,0-4.537,2.17-6.865,5.129-6.865a4.123,4.123,0,0,1,1.914.414l.829,3.275h1.164l.039-3.413a8.185,8.185,0,0,0-4.3-1.085c-4.577,0-7.714,3.018-7.714,7.654,0,4.715,3.058,7.714,7.6,7.714a9.039,9.039,0,0,0,4.774-1.3V2.459c0-1.559.02-2.979.039-4.36l1.3-.158Z" transform="translate(43.56 52.362)" fill="#fff"/>
    </g>
  </g>
</svg>
